M48
; DRILL file KiCad 10.0.3 date 2026-07-05T11:57:32
; FORMAT={-:-/ absolute / metric / decimal}
; #@! TF.CreationDate,2026-07-05T11:57:32+02:00
; #@! TF.GenerationSoftware,Kicad,Pcbnew,10.0.3
; #@! TF.FileFunction,Plated,1,2,PTH
FMAT,2
METRIC
; #@! TA.AperFunction,Plated,PTH,ViaDrill
T1C0.300
; #@! TA.AperFunction,Plated,PTH,ComponentDrill
T2C0.400
; #@! TA.AperFunction,Plated,PTH,ComponentDrill
T3C0.500
; #@! TA.AperFunction,Plated,PTH,ComponentDrill
T4C0.750
; #@! TA.AperFunction,Plated,PTH,ComponentDrill
T5C0.800
; #@! TA.AperFunction,Plated,PTH,ComponentDrill
T6C1.000
; #@! TA.AperFunction,Plated,PTH,ComponentDrill
T7C2.200
%
G90
G05
T1
X196.5Y-83.5
X198.0Y-83.5
T2
X158.2Y-76.0
X158.35Y-100.5
X158.683Y-74.833
X158.683Y-77.167
X158.833Y-99.333
X158.833Y-101.667
X159.85Y-74.35
X159.85Y-77.65
X160.0Y-98.85
X160.0Y-102.15
X161.017Y-74.833
X161.017Y-77.167
X161.167Y-99.333
X161.167Y-101.667
X161.5Y-76.0
X161.65Y-100.5
X220.35Y-76.0
X220.35Y-100.5
X220.833Y-74.833
X220.833Y-77.167
X220.833Y-99.333
X220.833Y-101.667
X222.0Y-74.35
X222.0Y-77.65
X222.0Y-98.85
X222.0Y-102.15
X223.167Y-74.833
X223.167Y-77.167
X223.167Y-99.333
X223.167Y-101.667
X223.65Y-76.0
X223.65Y-100.5
T3
X161.5Y-88.25
X161.5Y-89.5
X199.375Y-76.455
X199.5Y-99.955
X200.625Y-76.455
X200.75Y-99.955
X209.0Y-100.0
X210.25Y-100.0
T4
X202.64Y-86.96
X202.64Y-88.23
X202.64Y-89.5
T5
X213.0Y-87.182
X213.0Y-89.682
X221.5Y-86.5
X221.5Y-91.5
T6
X169.995Y-82.405
X169.995Y-96.405
X192.995Y-82.405
X192.995Y-84.945
X192.995Y-93.865
X192.995Y-96.405
T7
X159.85Y-76.0
X160.0Y-100.5
X222.0Y-76.0
X222.0Y-100.5
M30
