G04 #@! TF.GenerationSoftware,KiCad,Pcbnew,10.0.3*
G04 #@! TF.CreationDate,2026-07-05T12:05:55+02:00*
G04 #@! TF.ProjectId,Solar charger,536f6c61-7220-4636-9861-726765722e6b,rev?*
G04 #@! TF.SameCoordinates,Original*
G04 #@! TF.FileFunction,Soldermask,Bot*
G04 #@! TF.FilePolarity,Negative*
%FSLAX46Y46*%
G04 Gerber Fmt 4.6, Leading zero omitted, Abs format (unit mm)*
G04 Created by KiCad (PCBNEW 10.0.3) date 2026-07-05 12:05:55*
%MOMM*%
%LPD*%
G01*
G04 APERTURE LIST*
G04 Aperture macros list*
%AMRoundRect*
0 Rectangle with rounded corners*
0 $1 Rounding radius*
0 $2 $3 $4 $5 $6 $7 $8 $9 X,Y pos of 4 corners*
0 Add a 4 corners polygon primitive as box body*
4,1,4,$2,$3,$4,$5,$6,$7,$8,$9,$2,$3,0*
0 Add four circle primitives for the rounded corners*
1,1,$1+$1,$2,$3*
1,1,$1+$1,$4,$5*
1,1,$1+$1,$6,$7*
1,1,$1+$1,$8,$9*
0 Add four rect primitives between the rounded corners*
20,1,$1+$1,$2,$3,$4,$5,0*
20,1,$1+$1,$4,$5,$6,$7,0*
20,1,$1+$1,$6,$7,$8,$9,0*
20,1,$1+$1,$8,$9,$2,$3,0*%
G04 Aperture macros list end*
%ADD10RoundRect,0.200000X-0.200000X-0.450000X0.200000X-0.450000X0.200000X0.450000X-0.200000X0.450000X0*%
%ADD11O,0.800000X1.300000*%
%ADD12C,0.700000*%
%ADD13C,4.400000*%
%ADD14RoundRect,0.250000X0.550000X-0.550000X0.550000X0.550000X-0.550000X0.550000X-0.550000X-0.550000X0*%
%ADD15C,1.600000*%
%ADD16C,2.000000*%
%ADD17R,1.500000X1.050000*%
%ADD18O,1.500000X1.050000*%
%ADD19RoundRect,0.200000X0.450000X-0.200000X0.450000X0.200000X-0.450000X0.200000X-0.450000X-0.200000X0*%
%ADD20O,1.300000X0.800000*%
G04 APERTURE END LIST*
D10*
X209000000Y-100000000D03*
D11*
X210250000Y-100000000D03*
D12*
X220350000Y-76000000D03*
X220833274Y-74833274D03*
X220833274Y-77166726D03*
X222000000Y-74350000D03*
D13*
X222000000Y-76000000D03*
D12*
X222000000Y-77650000D03*
X223166726Y-74833274D03*
X223166726Y-77166726D03*
X223650000Y-76000000D03*
D14*
X213000000Y-89682380D03*
D15*
X213000000Y-87182380D03*
D16*
X169995000Y-82405000D03*
X169995000Y-96405000D03*
X192995000Y-82405000D03*
X192995000Y-84945000D03*
X192995000Y-93865000D03*
X192995000Y-96405000D03*
D17*
X202640000Y-86960000D03*
D18*
X202640000Y-88230000D03*
X202640000Y-89500000D03*
D15*
X221500000Y-86500000D03*
X221500000Y-91500000D03*
D12*
X220350000Y-100500000D03*
X220833274Y-99333274D03*
X220833274Y-101666726D03*
X222000000Y-98850000D03*
D13*
X222000000Y-100500000D03*
D12*
X222000000Y-102150000D03*
X223166726Y-99333274D03*
X223166726Y-101666726D03*
X223650000Y-100500000D03*
X158200000Y-76000000D03*
X158683274Y-74833274D03*
X158683274Y-77166726D03*
X159850000Y-74350000D03*
D13*
X159850000Y-76000000D03*
D12*
X159850000Y-77650000D03*
X161016726Y-74833274D03*
X161016726Y-77166726D03*
X161500000Y-76000000D03*
D10*
X199375000Y-76455000D03*
D11*
X200625000Y-76455000D03*
D19*
X161500000Y-89500000D03*
D20*
X161500000Y-88250000D03*
D12*
X158350000Y-100500000D03*
X158833274Y-99333274D03*
X158833274Y-101666726D03*
X160000000Y-98850000D03*
D13*
X160000000Y-100500000D03*
D12*
X160000000Y-102150000D03*
X161166726Y-99333274D03*
X161166726Y-101666726D03*
X161650000Y-100500000D03*
D10*
X199500000Y-99955000D03*
D11*
X200750000Y-99955000D03*
M02*
