%TF.GenerationSoftware,KiCad,Pcbnew,10.0.3*%
%TF.CreationDate,2026-07-21T15:22:16+02:00*%
%TF.ProjectId,Solar charger,536f6c61-7220-4636-9861-726765722e6b,rev?*%
%TF.SameCoordinates,Original*%
%TF.FileFunction,Drillmap*%
%TF.FilePolarity,Positive*%
%FSLAX45Y45*%
G04 Gerber Fmt 4.5, Leading zero omitted, Abs format (unit mm)*
G04 Created by KiCad (PCBNEW 10.0.3) date 2026-07-21 15:22:16*
%MOMM*%
%LPD*%
G01*
G04 APERTURE LIST*
%ADD10C,0.050000*%
%ADD11C,0.200000*%
G04 APERTURE END LIST*
D10*
X15226868Y-6936198D02*
X22578319Y-6936198D01*
X22578319Y-10909980D01*
X15226868Y-10909980D01*
X15226868Y-6936198D01*
D11*
X15485145Y-11223963D02*
X15485145Y-11023963D01*
X15485145Y-11023963D02*
X15532764Y-11023963D01*
X15532764Y-11023963D02*
X15561336Y-11033487D01*
X15561336Y-11033487D02*
X15580383Y-11052535D01*
X15580383Y-11052535D02*
X15589907Y-11071582D01*
X15589907Y-11071582D02*
X15599431Y-11109678D01*
X15599431Y-11109678D02*
X15599431Y-11138249D01*
X15599431Y-11138249D02*
X15589907Y-11176344D01*
X15589907Y-11176344D02*
X15580383Y-11195392D01*
X15580383Y-11195392D02*
X15561336Y-11214439D01*
X15561336Y-11214439D02*
X15532764Y-11223963D01*
X15532764Y-11223963D02*
X15485145Y-11223963D01*
X15685145Y-11223963D02*
X15685145Y-11090630D01*
X15685145Y-11128725D02*
X15694669Y-11109678D01*
X15694669Y-11109678D02*
X15704193Y-11100154D01*
X15704193Y-11100154D02*
X15723240Y-11090630D01*
X15723240Y-11090630D02*
X15742288Y-11090630D01*
X15808955Y-11223963D02*
X15808955Y-11090630D01*
X15808955Y-11023963D02*
X15799431Y-11033487D01*
X15799431Y-11033487D02*
X15808955Y-11043011D01*
X15808955Y-11043011D02*
X15818478Y-11033487D01*
X15818478Y-11033487D02*
X15808955Y-11023963D01*
X15808955Y-11023963D02*
X15808955Y-11043011D01*
X15932764Y-11223963D02*
X15913716Y-11214439D01*
X15913716Y-11214439D02*
X15904193Y-11195392D01*
X15904193Y-11195392D02*
X15904193Y-11023963D01*
X16037526Y-11223963D02*
X16018478Y-11214439D01*
X16018478Y-11214439D02*
X16008955Y-11195392D01*
X16008955Y-11195392D02*
X16008955Y-11023963D01*
X16266097Y-11223963D02*
X16266097Y-11023963D01*
X16266097Y-11023963D02*
X16332764Y-11166820D01*
X16332764Y-11166820D02*
X16399431Y-11023963D01*
X16399431Y-11023963D02*
X16399431Y-11223963D01*
X16580383Y-11223963D02*
X16580383Y-11119201D01*
X16580383Y-11119201D02*
X16570859Y-11100154D01*
X16570859Y-11100154D02*
X16551812Y-11090630D01*
X16551812Y-11090630D02*
X16513716Y-11090630D01*
X16513716Y-11090630D02*
X16494669Y-11100154D01*
X16580383Y-11214439D02*
X16561336Y-11223963D01*
X16561336Y-11223963D02*
X16513716Y-11223963D01*
X16513716Y-11223963D02*
X16494669Y-11214439D01*
X16494669Y-11214439D02*
X16485145Y-11195392D01*
X16485145Y-11195392D02*
X16485145Y-11176344D01*
X16485145Y-11176344D02*
X16494669Y-11157297D01*
X16494669Y-11157297D02*
X16513716Y-11147773D01*
X16513716Y-11147773D02*
X16561336Y-11147773D01*
X16561336Y-11147773D02*
X16580383Y-11138249D01*
X16675621Y-11090630D02*
X16675621Y-11290630D01*
X16675621Y-11100154D02*
X16694669Y-11090630D01*
X16694669Y-11090630D02*
X16732764Y-11090630D01*
X16732764Y-11090630D02*
X16751812Y-11100154D01*
X16751812Y-11100154D02*
X16761336Y-11109678D01*
X16761336Y-11109678D02*
X16770859Y-11128725D01*
X16770859Y-11128725D02*
X16770859Y-11185868D01*
X16770859Y-11185868D02*
X16761336Y-11204916D01*
X16761336Y-11204916D02*
X16751812Y-11214439D01*
X16751812Y-11214439D02*
X16732764Y-11223963D01*
X16732764Y-11223963D02*
X16694669Y-11223963D01*
X16694669Y-11223963D02*
X16675621Y-11214439D01*
X16856574Y-11204916D02*
X16866098Y-11214439D01*
X16866098Y-11214439D02*
X16856574Y-11223963D01*
X16856574Y-11223963D02*
X16847050Y-11214439D01*
X16847050Y-11214439D02*
X16856574Y-11204916D01*
X16856574Y-11204916D02*
X16856574Y-11223963D01*
X16856574Y-11100154D02*
X16866098Y-11109678D01*
X16866098Y-11109678D02*
X16856574Y-11119201D01*
X16856574Y-11119201D02*
X16847050Y-11109678D01*
X16847050Y-11109678D02*
X16856574Y-11100154D01*
X16856574Y-11100154D02*
X16856574Y-11119201D01*
M02*
