G04 #@! TF.GenerationSoftware,KiCad,Pcbnew,10.0.3*
G04 #@! TF.CreationDate,2026-07-05T12:05:54+02:00*
G04 #@! TF.ProjectId,Solar charger,536f6c61-7220-4636-9861-726765722e6b,rev?*
G04 #@! TF.SameCoordinates,Original*
G04 #@! TF.FileFunction,Copper,L1,Top*
G04 #@! TF.FilePolarity,Positive*
%FSLAX46Y46*%
G04 Gerber Fmt 4.6, Leading zero omitted, Abs format (unit mm)*
G04 Created by KiCad (PCBNEW 10.0.3) date 2026-07-05 12:05:54*
%MOMM*%
%LPD*%
G01*
G04 APERTURE LIST*
G04 Aperture macros list*
%AMRoundRect*
0 Rectangle with rounded corners*
0 $1 Rounding radius*
0 $2 $3 $4 $5 $6 $7 $8 $9 X,Y pos of 4 corners*
0 Add a 4 corners polygon primitive as box body*
4,1,4,$2,$3,$4,$5,$6,$7,$8,$9,$2,$3,0*
0 Add four circle primitives for the rounded corners*
1,1,$1+$1,$2,$3*
1,1,$1+$1,$4,$5*
1,1,$1+$1,$6,$7*
1,1,$1+$1,$8,$9*
0 Add four rect primitives between the rounded corners*
20,1,$1+$1,$2,$3,$4,$5,0*
20,1,$1+$1,$4,$5,$6,$7,0*
20,1,$1+$1,$6,$7,$8,$9,0*
20,1,$1+$1,$8,$9,$2,$3,0*%
G04 Aperture macros list end*
%ADD10C,0.200000*%
G04 #@! TA.AperFunction,NonConductor*
%ADD11C,0.200000*%
G04 #@! TD*
G04 #@! TA.AperFunction,ComponentPad*
%ADD12RoundRect,0.200000X-0.200000X-0.450000X0.200000X-0.450000X0.200000X0.450000X-0.200000X0.450000X0*%
G04 #@! TD*
G04 #@! TA.AperFunction,ComponentPad*
%ADD13O,0.800000X1.300000*%
G04 #@! TD*
G04 #@! TA.AperFunction,ComponentPad*
%ADD14C,0.700000*%
G04 #@! TD*
G04 #@! TA.AperFunction,ComponentPad*
%ADD15C,4.400000*%
G04 #@! TD*
G04 #@! TA.AperFunction,ComponentPad*
%ADD16RoundRect,0.250000X0.550000X-0.550000X0.550000X0.550000X-0.550000X0.550000X-0.550000X-0.550000X0*%
G04 #@! TD*
G04 #@! TA.AperFunction,ComponentPad*
%ADD17C,1.600000*%
G04 #@! TD*
G04 #@! TA.AperFunction,ComponentPad*
%ADD18C,2.000000*%
G04 #@! TD*
G04 #@! TA.AperFunction,ComponentPad*
%ADD19R,1.500000X1.050000*%
G04 #@! TD*
G04 #@! TA.AperFunction,ComponentPad*
%ADD20O,1.500000X1.050000*%
G04 #@! TD*
G04 #@! TA.AperFunction,ComponentPad*
%ADD21RoundRect,0.200000X0.450000X-0.200000X0.450000X0.200000X-0.450000X0.200000X-0.450000X-0.200000X0*%
G04 #@! TD*
G04 #@! TA.AperFunction,ComponentPad*
%ADD22O,1.300000X0.800000*%
G04 #@! TD*
G04 #@! TA.AperFunction,ViaPad*
%ADD23C,0.600000*%
G04 #@! TD*
G04 #@! TA.AperFunction,Conductor*
%ADD24C,0.500000*%
G04 #@! TD*
G04 APERTURE END LIST*
D10*
D11*
X173050625Y-102091695D02*
X173050625Y-102663123D01*
X173050625Y-102663123D02*
X173012530Y-102777409D01*
X173012530Y-102777409D02*
X172936339Y-102853600D01*
X172936339Y-102853600D02*
X172822054Y-102891695D01*
X172822054Y-102891695D02*
X172745863Y-102891695D01*
X173774435Y-102358361D02*
X173774435Y-102891695D01*
X173431578Y-102358361D02*
X173431578Y-102777409D01*
X173431578Y-102777409D02*
X173469673Y-102853600D01*
X173469673Y-102853600D02*
X173545863Y-102891695D01*
X173545863Y-102891695D02*
X173660149Y-102891695D01*
X173660149Y-102891695D02*
X173736340Y-102853600D01*
X173736340Y-102853600D02*
X173774435Y-102815504D01*
X174269673Y-102891695D02*
X174193483Y-102853600D01*
X174193483Y-102853600D02*
X174155388Y-102777409D01*
X174155388Y-102777409D02*
X174155388Y-102091695D01*
X175564912Y-102091695D02*
X175183960Y-102091695D01*
X175183960Y-102091695D02*
X175145864Y-102472647D01*
X175145864Y-102472647D02*
X175183960Y-102434552D01*
X175183960Y-102434552D02*
X175260150Y-102396457D01*
X175260150Y-102396457D02*
X175450626Y-102396457D01*
X175450626Y-102396457D02*
X175526817Y-102434552D01*
X175526817Y-102434552D02*
X175564912Y-102472647D01*
X175564912Y-102472647D02*
X175603007Y-102548838D01*
X175603007Y-102548838D02*
X175603007Y-102739314D01*
X175603007Y-102739314D02*
X175564912Y-102815504D01*
X175564912Y-102815504D02*
X175526817Y-102853600D01*
X175526817Y-102853600D02*
X175450626Y-102891695D01*
X175450626Y-102891695D02*
X175260150Y-102891695D01*
X175260150Y-102891695D02*
X175183960Y-102853600D01*
X175183960Y-102853600D02*
X175145864Y-102815504D01*
X175831579Y-102358361D02*
X176136341Y-102358361D01*
X175945865Y-102091695D02*
X175945865Y-102777409D01*
X175945865Y-102777409D02*
X175983960Y-102853600D01*
X175983960Y-102853600D02*
X176060150Y-102891695D01*
X176060150Y-102891695D02*
X176136341Y-102891695D01*
X176403008Y-102891695D02*
X176403008Y-102091695D01*
X176745865Y-102891695D02*
X176745865Y-102472647D01*
X176745865Y-102472647D02*
X176707770Y-102396457D01*
X176707770Y-102396457D02*
X176631579Y-102358361D01*
X176631579Y-102358361D02*
X176517293Y-102358361D01*
X176517293Y-102358361D02*
X176441103Y-102396457D01*
X176441103Y-102396457D02*
X176403008Y-102434552D01*
X177164913Y-102853600D02*
X177164913Y-102891695D01*
X177164913Y-102891695D02*
X177126818Y-102967885D01*
X177126818Y-102967885D02*
X177088722Y-103005980D01*
X178079198Y-102167885D02*
X178117294Y-102129790D01*
X178117294Y-102129790D02*
X178193484Y-102091695D01*
X178193484Y-102091695D02*
X178383960Y-102091695D01*
X178383960Y-102091695D02*
X178460151Y-102129790D01*
X178460151Y-102129790D02*
X178498246Y-102167885D01*
X178498246Y-102167885D02*
X178536341Y-102244076D01*
X178536341Y-102244076D02*
X178536341Y-102320266D01*
X178536341Y-102320266D02*
X178498246Y-102434552D01*
X178498246Y-102434552D02*
X178041103Y-102891695D01*
X178041103Y-102891695D02*
X178536341Y-102891695D01*
X179031580Y-102091695D02*
X179107770Y-102091695D01*
X179107770Y-102091695D02*
X179183961Y-102129790D01*
X179183961Y-102129790D02*
X179222056Y-102167885D01*
X179222056Y-102167885D02*
X179260151Y-102244076D01*
X179260151Y-102244076D02*
X179298246Y-102396457D01*
X179298246Y-102396457D02*
X179298246Y-102586933D01*
X179298246Y-102586933D02*
X179260151Y-102739314D01*
X179260151Y-102739314D02*
X179222056Y-102815504D01*
X179222056Y-102815504D02*
X179183961Y-102853600D01*
X179183961Y-102853600D02*
X179107770Y-102891695D01*
X179107770Y-102891695D02*
X179031580Y-102891695D01*
X179031580Y-102891695D02*
X178955389Y-102853600D01*
X178955389Y-102853600D02*
X178917294Y-102815504D01*
X178917294Y-102815504D02*
X178879199Y-102739314D01*
X178879199Y-102739314D02*
X178841103Y-102586933D01*
X178841103Y-102586933D02*
X178841103Y-102396457D01*
X178841103Y-102396457D02*
X178879199Y-102244076D01*
X178879199Y-102244076D02*
X178917294Y-102167885D01*
X178917294Y-102167885D02*
X178955389Y-102129790D01*
X178955389Y-102129790D02*
X179031580Y-102091695D01*
X179603008Y-102167885D02*
X179641104Y-102129790D01*
X179641104Y-102129790D02*
X179717294Y-102091695D01*
X179717294Y-102091695D02*
X179907770Y-102091695D01*
X179907770Y-102091695D02*
X179983961Y-102129790D01*
X179983961Y-102129790D02*
X180022056Y-102167885D01*
X180022056Y-102167885D02*
X180060151Y-102244076D01*
X180060151Y-102244076D02*
X180060151Y-102320266D01*
X180060151Y-102320266D02*
X180022056Y-102434552D01*
X180022056Y-102434552D02*
X179564913Y-102891695D01*
X179564913Y-102891695D02*
X180060151Y-102891695D01*
X180745866Y-102091695D02*
X180593485Y-102091695D01*
X180593485Y-102091695D02*
X180517294Y-102129790D01*
X180517294Y-102129790D02*
X180479199Y-102167885D01*
X180479199Y-102167885D02*
X180403009Y-102282171D01*
X180403009Y-102282171D02*
X180364913Y-102434552D01*
X180364913Y-102434552D02*
X180364913Y-102739314D01*
X180364913Y-102739314D02*
X180403009Y-102815504D01*
X180403009Y-102815504D02*
X180441104Y-102853600D01*
X180441104Y-102853600D02*
X180517294Y-102891695D01*
X180517294Y-102891695D02*
X180669675Y-102891695D01*
X180669675Y-102891695D02*
X180745866Y-102853600D01*
X180745866Y-102853600D02*
X180783961Y-102815504D01*
X180783961Y-102815504D02*
X180822056Y-102739314D01*
X180822056Y-102739314D02*
X180822056Y-102548838D01*
X180822056Y-102548838D02*
X180783961Y-102472647D01*
X180783961Y-102472647D02*
X180745866Y-102434552D01*
X180745866Y-102434552D02*
X180669675Y-102396457D01*
X180669675Y-102396457D02*
X180517294Y-102396457D01*
X180517294Y-102396457D02*
X180441104Y-102434552D01*
X180441104Y-102434552D02*
X180403009Y-102472647D01*
X180403009Y-102472647D02*
X180364913Y-102548838D01*
X181774438Y-102586933D02*
X182383962Y-102586933D01*
X183298247Y-102358361D02*
X183488723Y-102891695D01*
X183488723Y-102891695D02*
X183679200Y-102358361D01*
X184403009Y-102891695D02*
X183945866Y-102891695D01*
X184174438Y-102891695D02*
X184174438Y-102091695D01*
X184174438Y-102091695D02*
X184098247Y-102205980D01*
X184098247Y-102205980D02*
X184022057Y-102282171D01*
X184022057Y-102282171D02*
X183945866Y-102320266D01*
X184745867Y-102815504D02*
X184783962Y-102853600D01*
X184783962Y-102853600D02*
X184745867Y-102891695D01*
X184745867Y-102891695D02*
X184707771Y-102853600D01*
X184707771Y-102853600D02*
X184745867Y-102815504D01*
X184745867Y-102815504D02*
X184745867Y-102891695D01*
X185279200Y-102091695D02*
X185355390Y-102091695D01*
X185355390Y-102091695D02*
X185431581Y-102129790D01*
X185431581Y-102129790D02*
X185469676Y-102167885D01*
X185469676Y-102167885D02*
X185507771Y-102244076D01*
X185507771Y-102244076D02*
X185545866Y-102396457D01*
X185545866Y-102396457D02*
X185545866Y-102586933D01*
X185545866Y-102586933D02*
X185507771Y-102739314D01*
X185507771Y-102739314D02*
X185469676Y-102815504D01*
X185469676Y-102815504D02*
X185431581Y-102853600D01*
X185431581Y-102853600D02*
X185355390Y-102891695D01*
X185355390Y-102891695D02*
X185279200Y-102891695D01*
X185279200Y-102891695D02*
X185203009Y-102853600D01*
X185203009Y-102853600D02*
X185164914Y-102815504D01*
X185164914Y-102815504D02*
X185126819Y-102739314D01*
X185126819Y-102739314D02*
X185088723Y-102586933D01*
X185088723Y-102586933D02*
X185088723Y-102396457D01*
X185088723Y-102396457D02*
X185126819Y-102244076D01*
X185126819Y-102244076D02*
X185164914Y-102167885D01*
X185164914Y-102167885D02*
X185203009Y-102129790D01*
X185203009Y-102129790D02*
X185279200Y-102091695D01*
D12*
X209000000Y-100000000D03*
D13*
X210250000Y-100000000D03*
D14*
X220350000Y-76000000D03*
X220833274Y-74833274D03*
X220833274Y-77166726D03*
X222000000Y-74350000D03*
D15*
X222000000Y-76000000D03*
D14*
X222000000Y-77650000D03*
X223166726Y-74833274D03*
X223166726Y-77166726D03*
X223650000Y-76000000D03*
D16*
X213000000Y-89682380D03*
D17*
X213000000Y-87182380D03*
D18*
X169995000Y-82405000D03*
X169995000Y-96405000D03*
X192995000Y-82405000D03*
X192995000Y-84945000D03*
X192995000Y-93865000D03*
X192995000Y-96405000D03*
D19*
X202640000Y-86960000D03*
D20*
X202640000Y-88230000D03*
X202640000Y-89500000D03*
D17*
X221500000Y-86500000D03*
X221500000Y-91500000D03*
D14*
X220350000Y-100500000D03*
X220833274Y-99333274D03*
X220833274Y-101666726D03*
X222000000Y-98850000D03*
D15*
X222000000Y-100500000D03*
D14*
X222000000Y-102150000D03*
X223166726Y-99333274D03*
X223166726Y-101666726D03*
X223650000Y-100500000D03*
X158200000Y-76000000D03*
X158683274Y-74833274D03*
X158683274Y-77166726D03*
X159850000Y-74350000D03*
D15*
X159850000Y-76000000D03*
D14*
X159850000Y-77650000D03*
X161016726Y-74833274D03*
X161016726Y-77166726D03*
X161500000Y-76000000D03*
D12*
X199375000Y-76455000D03*
D13*
X200625000Y-76455000D03*
D21*
X161500000Y-89500000D03*
D22*
X161500000Y-88250000D03*
D14*
X158350000Y-100500000D03*
X158833274Y-99333274D03*
X158833274Y-101666726D03*
X160000000Y-98850000D03*
D15*
X160000000Y-100500000D03*
D14*
X160000000Y-102150000D03*
X161166726Y-99333274D03*
X161166726Y-101666726D03*
X161650000Y-100500000D03*
D12*
X199500000Y-99955000D03*
D13*
X200750000Y-99955000D03*
D23*
X196500000Y-83500000D03*
X198000000Y-83500000D03*
D24*
X202640000Y-92640000D02*
X209000000Y-99000000D01*
X202640000Y-89500000D02*
X206140000Y-93000000D01*
X209000000Y-99000000D02*
X209000000Y-100000000D01*
X213000000Y-89682380D02*
X213682380Y-89682380D01*
X206140000Y-93000000D02*
X213000000Y-93000000D01*
X213000000Y-93000000D02*
X213000000Y-89682380D01*
X213000000Y-93000000D02*
X219500000Y-93000000D01*
X213000000Y-89682380D02*
X213500000Y-89682380D01*
X219500000Y-93000000D02*
X221000000Y-91500000D01*
X202640000Y-89500000D02*
X202640000Y-92640000D01*
X169995000Y-82405000D02*
X164150000Y-88250000D01*
X164150000Y-88250000D02*
X161500000Y-88250000D01*
X164000000Y-89500000D02*
X161500000Y-89500000D01*
X169995000Y-95495000D02*
X169995000Y-96405000D01*
X164000000Y-89500000D02*
X169995000Y-95495000D01*
X199405000Y-82405000D02*
X199500000Y-82500000D01*
X201230000Y-88230000D02*
X202640000Y-88230000D01*
X199500000Y-82500000D02*
X199500000Y-86500000D01*
X199500000Y-86500000D02*
X201230000Y-88230000D01*
X199500000Y-86500000D02*
X199500000Y-99955000D01*
X192995000Y-82405000D02*
X199405000Y-82405000D01*
X192995000Y-84945000D02*
X196445000Y-84945000D01*
X196445000Y-84945000D02*
X196500000Y-85000000D01*
X196500000Y-85000000D02*
X196500000Y-83500000D01*
X192995000Y-93865000D02*
X198000000Y-88860000D01*
X198000000Y-88860000D02*
X198000000Y-83500000D01*
G04 #@! TA.AperFunction,Conductor*
G36*
X225442539Y-72520184D02*
G01*
X225488294Y-72572988D01*
X225499500Y-72624499D01*
X225499500Y-103875500D01*
X225479815Y-103942539D01*
X225427011Y-103988294D01*
X225375500Y-103999500D01*
X156624500Y-103999500D01*
X156557461Y-103979815D01*
X156511706Y-103927011D01*
X156500500Y-103875500D01*
X156500500Y-103611480D01*
X172140363Y-103611480D01*
X186153151Y-103611480D01*
X186153151Y-101484331D01*
X172140363Y-101484331D01*
X172140363Y-103611480D01*
X156500500Y-103611480D01*
X156500500Y-100348336D01*
X157299500Y-100348336D01*
X157299500Y-100651663D01*
X157333457Y-100953048D01*
X157333459Y-100953060D01*
X157333460Y-100953063D01*
X157344760Y-101002571D01*
X157400953Y-101248771D01*
X157400957Y-101248783D01*
X157501133Y-101535068D01*
X157632733Y-101808338D01*
X157632735Y-101808341D01*
X157794108Y-102065164D01*
X157983221Y-102302304D01*
X158197696Y-102516779D01*
X158434836Y-102705892D01*
X158691659Y-102867265D01*
X158964935Y-102998868D01*
X159179951Y-103074105D01*
X159251216Y-103099042D01*
X159251228Y-103099046D01*
X159546937Y-103166540D01*
X159546946Y-103166541D01*
X159546951Y-103166542D01*
X159747874Y-103189180D01*
X159848337Y-103200499D01*
X159848340Y-103200500D01*
X159848343Y-103200500D01*
X160151660Y-103200500D01*
X160151661Y-103200499D01*
X160305694Y-103183144D01*
X160453048Y-103166542D01*
X160453051Y-103166541D01*
X160453063Y-103166540D01*
X160748772Y-103099046D01*
X161035065Y-102998868D01*
X161308341Y-102867265D01*
X161565164Y-102705892D01*
X161802304Y-102516779D01*
X162016779Y-102302304D01*
X162205892Y-102065164D01*
X162367265Y-101808341D01*
X162498868Y-101535065D01*
X162599046Y-101248772D01*
X162666540Y-100953063D01*
X162666990Y-100949076D01*
X162686184Y-100778716D01*
X162700500Y-100651657D01*
X162700500Y-100348343D01*
X162680061Y-100166940D01*
X162666542Y-100046951D01*
X162666541Y-100046946D01*
X162666540Y-100046937D01*
X162599046Y-99751228D01*
X162598616Y-99750000D01*
X162508823Y-99493386D01*
X162498868Y-99464935D01*
X162367265Y-99191659D01*
X162205892Y-98934836D01*
X162016779Y-98697696D01*
X161802304Y-98483221D01*
X161565164Y-98294108D01*
X161308341Y-98132735D01*
X161308338Y-98132733D01*
X161035068Y-98001133D01*
X160748783Y-97900957D01*
X160748771Y-97900953D01*
X160520556Y-97848864D01*
X160453063Y-97833460D01*
X160453060Y-97833459D01*
X160453048Y-97833457D01*
X160151663Y-97799500D01*
X160151657Y-97799500D01*
X159848343Y-97799500D01*
X159848336Y-97799500D01*
X159546951Y-97833457D01*
X159546937Y-97833460D01*
X159251228Y-97900953D01*
X159251216Y-97900957D01*
X158964931Y-98001133D01*
X158691661Y-98132733D01*
X158434837Y-98294107D01*
X158197696Y-98483220D01*
X157983220Y-98697696D01*
X157794107Y-98934837D01*
X157632733Y-99191661D01*
X157501133Y-99464931D01*
X157400957Y-99751216D01*
X157400953Y-99751228D01*
X157333460Y-100046937D01*
X157333457Y-100046951D01*
X157299500Y-100348336D01*
X156500500Y-100348336D01*
X156500500Y-88161304D01*
X160349500Y-88161304D01*
X160349500Y-88338695D01*
X160384103Y-88512658D01*
X160384106Y-88512667D01*
X160451983Y-88676540D01*
X160451991Y-88676555D01*
X160490265Y-88733834D01*
X160511144Y-88800511D01*
X160493281Y-88866875D01*
X160406523Y-89010391D01*
X160355913Y-89172807D01*
X160349500Y-89243386D01*
X160349500Y-89756613D01*
X160355913Y-89827192D01*
X160406522Y-89989606D01*
X160494530Y-90135188D01*
X160614811Y-90255469D01*
X160614813Y-90255470D01*
X160614815Y-90255472D01*
X160760394Y-90343478D01*
X160922804Y-90394086D01*
X160993384Y-90400500D01*
X160993387Y-90400500D01*
X162006613Y-90400500D01*
X162006616Y-90400500D01*
X162077196Y-90394086D01*
X162239606Y-90343478D01*
X162363828Y-90268382D01*
X162427977Y-90250500D01*
X163637770Y-90250500D01*
X163704809Y-90270185D01*
X163725451Y-90286819D01*
X168782176Y-95343544D01*
X168815661Y-95404867D01*
X168810677Y-95474559D01*
X168794814Y-95504110D01*
X168711656Y-95618567D01*
X168604433Y-95829003D01*
X168531446Y-96053631D01*
X168494500Y-96286902D01*
X168494500Y-96523097D01*
X168531446Y-96756368D01*
X168604433Y-96980996D01*
X168711519Y-97191163D01*
X168711657Y-97191433D01*
X168850483Y-97382510D01*
X169017490Y-97549517D01*
X169208567Y-97688343D01*
X169307991Y-97739002D01*
X169419003Y-97795566D01*
X169419005Y-97795566D01*
X169419008Y-97795568D01*
X169535618Y-97833457D01*
X169643631Y-97868553D01*
X169876903Y-97905500D01*
X169876908Y-97905500D01*
X170113097Y-97905500D01*
X170346368Y-97868553D01*
X170347870Y-97868065D01*
X170570992Y-97795568D01*
X170781433Y-97688343D01*
X170972510Y-97549517D01*
X171139517Y-97382510D01*
X171278343Y-97191433D01*
X171385568Y-96980992D01*
X171458553Y-96756368D01*
X171483637Y-96597993D01*
X171495500Y-96523097D01*
X171495500Y-96286902D01*
X171458553Y-96053631D01*
X171385566Y-95829003D01*
X171278477Y-95618830D01*
X171278343Y-95618567D01*
X171139517Y-95427490D01*
X170972510Y-95260483D01*
X170781433Y-95121657D01*
X170727577Y-95094216D01*
X170598291Y-95028341D01*
X170596383Y-95026955D01*
X170595160Y-95026689D01*
X170566905Y-95005538D01*
X170473416Y-94912049D01*
X164594925Y-89033557D01*
X164561440Y-88972234D01*
X164566424Y-88902542D01*
X164608296Y-88846609D01*
X164613705Y-88842780D01*
X164628416Y-88832952D01*
X169555087Y-83906278D01*
X169616408Y-83872795D01*
X169662163Y-83871488D01*
X169697789Y-83877130D01*
X169876903Y-83905500D01*
X169876908Y-83905500D01*
X170113097Y-83905500D01*
X170346368Y-83868553D01*
X170384725Y-83856090D01*
X170570992Y-83795568D01*
X170781433Y-83688343D01*
X170972510Y-83549517D01*
X171139517Y-83382510D01*
X171278343Y-83191433D01*
X171385568Y-82980992D01*
X171458553Y-82756368D01*
X171461489Y-82737833D01*
X171495500Y-82523097D01*
X171495500Y-82286902D01*
X191494500Y-82286902D01*
X191494500Y-82523097D01*
X191531446Y-82756368D01*
X191604433Y-82980996D01*
X191693348Y-83155500D01*
X191711657Y-83191433D01*
X191850483Y-83382510D01*
X192017490Y-83549517D01*
X192052127Y-83574683D01*
X192094792Y-83630013D01*
X192100771Y-83699626D01*
X192068165Y-83761421D01*
X192052130Y-83775315D01*
X192034365Y-83788222D01*
X192017488Y-83800484D01*
X191850485Y-83967487D01*
X191850485Y-83967488D01*
X191850483Y-83967490D01*
X191790862Y-84049550D01*
X191711657Y-84158566D01*
X191604433Y-84369003D01*
X191531446Y-84593631D01*
X191494500Y-84826902D01*
X191494500Y-85063097D01*
X191531446Y-85296368D01*
X191604433Y-85520996D01*
X191677851Y-85665085D01*
X191711657Y-85731433D01*
X191850483Y-85922510D01*
X192017490Y-86089517D01*
X192208567Y-86228343D01*
X192259695Y-86254394D01*
X192419003Y-86335566D01*
X192419005Y-86335566D01*
X192419008Y-86335568D01*
X192539412Y-86374689D01*
X192643631Y-86408553D01*
X192876903Y-86445500D01*
X192876908Y-86445500D01*
X193113097Y-86445500D01*
X193346368Y-86408553D01*
X193379825Y-86397682D01*
X193570992Y-86335568D01*
X193781433Y-86228343D01*
X193972510Y-86089517D01*
X194139517Y-85922510D01*
X194267313Y-85746613D01*
X194322643Y-85703949D01*
X194367631Y-85695500D01*
X196193270Y-85695500D01*
X196224558Y-85699512D01*
X196232826Y-85701668D01*
X196281088Y-85721659D01*
X196397241Y-85744763D01*
X196420574Y-85749404D01*
X196426081Y-85750500D01*
X196426082Y-85750500D01*
X196573919Y-85750500D01*
X196573920Y-85750499D01*
X196718913Y-85721659D01*
X196855495Y-85665084D01*
X196978416Y-85582952D01*
X196978421Y-85582947D01*
X197037819Y-85523550D01*
X197099142Y-85490065D01*
X197168834Y-85495049D01*
X197224767Y-85536921D01*
X197249184Y-85602385D01*
X197249500Y-85611231D01*
X197249500Y-88497769D01*
X197229815Y-88564808D01*
X197213181Y-88585450D01*
X193434911Y-92363719D01*
X193373588Y-92397204D01*
X193327832Y-92398511D01*
X193113097Y-92364500D01*
X193113092Y-92364500D01*
X192876908Y-92364500D01*
X192876903Y-92364500D01*
X192643631Y-92401446D01*
X192419003Y-92474433D01*
X192208566Y-92581657D01*
X192105692Y-92656400D01*
X192017490Y-92720483D01*
X192017488Y-92720485D01*
X192017487Y-92720485D01*
X191850485Y-92887487D01*
X191850485Y-92887488D01*
X191850483Y-92887490D01*
X191790862Y-92969550D01*
X191711657Y-93078566D01*
X191604433Y-93289003D01*
X191531446Y-93513631D01*
X191494500Y-93746902D01*
X191494500Y-93983097D01*
X191531446Y-94216368D01*
X191604433Y-94440996D01*
X191711657Y-94651433D01*
X191850483Y-94842510D01*
X192017490Y-95009517D01*
X192076716Y-95052547D01*
X192119381Y-95107875D01*
X192127448Y-95162593D01*
X192125893Y-95182340D01*
X192865591Y-95922037D01*
X192802007Y-95939075D01*
X192687993Y-96004901D01*
X192594901Y-96097993D01*
X192529075Y-96212007D01*
X192512037Y-96275591D01*
X191772340Y-95535894D01*
X191712084Y-95618830D01*
X191604897Y-95829197D01*
X191531934Y-96053752D01*
X191495000Y-96286947D01*
X191495000Y-96523052D01*
X191531934Y-96756247D01*
X191604897Y-96980802D01*
X191712087Y-97191174D01*
X191772338Y-97274104D01*
X191772340Y-97274105D01*
X192512037Y-96534408D01*
X192529075Y-96597993D01*
X192594901Y-96712007D01*
X192687993Y-96805099D01*
X192802007Y-96870925D01*
X192865590Y-96887962D01*
X192125893Y-97627658D01*
X192208828Y-97687914D01*
X192419197Y-97795102D01*
X192643752Y-97868065D01*
X192643751Y-97868065D01*
X192876948Y-97905000D01*
X193113052Y-97905000D01*
X193346247Y-97868065D01*
X193570802Y-97795102D01*
X193781163Y-97687918D01*
X193781169Y-97687914D01*
X193864104Y-97627658D01*
X193864105Y-97627658D01*
X193124408Y-96887962D01*
X193187993Y-96870925D01*
X193302007Y-96805099D01*
X193395099Y-96712007D01*
X193460925Y-96597993D01*
X193477962Y-96534409D01*
X194217658Y-97274105D01*
X194217658Y-97274104D01*
X194277914Y-97191169D01*
X194277918Y-97191163D01*
X194385102Y-96980802D01*
X194458065Y-96756247D01*
X194495000Y-96523052D01*
X194495000Y-96286947D01*
X194458065Y-96053752D01*
X194385102Y-95829197D01*
X194277914Y-95618828D01*
X194217658Y-95535894D01*
X194217658Y-95535893D01*
X193477962Y-96275590D01*
X193460925Y-96212007D01*
X193395099Y-96097993D01*
X193302007Y-96004901D01*
X193187993Y-95939075D01*
X193124409Y-95922037D01*
X193864105Y-95182340D01*
X193862551Y-95162594D01*
X193876915Y-95094216D01*
X193913284Y-95052547D01*
X193972510Y-95009517D01*
X194139517Y-94842510D01*
X194278343Y-94651433D01*
X194385568Y-94440992D01*
X194458553Y-94216368D01*
X194495500Y-93983097D01*
X194495500Y-93746902D01*
X194461488Y-93532165D01*
X194470442Y-93462872D01*
X194496277Y-93425089D01*
X198537819Y-89383549D01*
X198599142Y-89350064D01*
X198668834Y-89355048D01*
X198724767Y-89396920D01*
X198749184Y-89462384D01*
X198749500Y-89471230D01*
X198749500Y-99027023D01*
X198731617Y-99091171D01*
X198707372Y-99131279D01*
X198656522Y-99215393D01*
X198605913Y-99377807D01*
X198599500Y-99448386D01*
X198599500Y-100461613D01*
X198605913Y-100532192D01*
X198605913Y-100532194D01*
X198605914Y-100532196D01*
X198643141Y-100651663D01*
X198656522Y-100694606D01*
X198744530Y-100840188D01*
X198864811Y-100960469D01*
X198864813Y-100960470D01*
X198864815Y-100960472D01*
X199010394Y-101048478D01*
X199172804Y-101099086D01*
X199243384Y-101105500D01*
X199243387Y-101105500D01*
X199756613Y-101105500D01*
X199756616Y-101105500D01*
X199827196Y-101099086D01*
X199989606Y-101048478D01*
X200133597Y-100961431D01*
X200201148Y-100943596D01*
X200266636Y-100964447D01*
X200323689Y-101002569D01*
X200323693Y-101002571D01*
X200487476Y-101070412D01*
X200487483Y-101070415D01*
X200500000Y-101072904D01*
X200500000Y-101072903D01*
X201000000Y-101072903D01*
X201012516Y-101070415D01*
X201012523Y-101070412D01*
X201176306Y-101002571D01*
X201176316Y-101002566D01*
X201323716Y-100904076D01*
X201323720Y-100904073D01*
X201449073Y-100778720D01*
X201449076Y-100778716D01*
X201547566Y-100631316D01*
X201547571Y-100631307D01*
X201615413Y-100467520D01*
X201615415Y-100467512D01*
X201649999Y-100293646D01*
X201650000Y-100293643D01*
X201650000Y-100205000D01*
X201000000Y-100205000D01*
X201000000Y-101072903D01*
X200500000Y-101072903D01*
X200500000Y-100004728D01*
X200538060Y-100096614D01*
X200608386Y-100166940D01*
X200700272Y-100205000D01*
X200799728Y-100205000D01*
X200891614Y-100166940D01*
X200961940Y-100096614D01*
X201000000Y-100004728D01*
X201000000Y-99905272D01*
X200961940Y-99813386D01*
X200891614Y-99743060D01*
X200799728Y-99705000D01*
X201000000Y-99705000D01*
X201650000Y-99705000D01*
X201650000Y-99616357D01*
X201649999Y-99616353D01*
X201615415Y-99442487D01*
X201615413Y-99442479D01*
X201547571Y-99278692D01*
X201547566Y-99278683D01*
X201449076Y-99131283D01*
X201449073Y-99131279D01*
X201323720Y-99005926D01*
X201323716Y-99005923D01*
X201176316Y-98907433D01*
X201176307Y-98907428D01*
X201012519Y-98839585D01*
X201000000Y-98837094D01*
X201000000Y-99705000D01*
X200799728Y-99705000D01*
X200700272Y-99705000D01*
X200608386Y-99743060D01*
X200538060Y-99813386D01*
X200500000Y-99905272D01*
X200500000Y-98837095D01*
X200499999Y-98837094D01*
X200487480Y-98839585D01*
X200421953Y-98866728D01*
X200352483Y-98874197D01*
X200290004Y-98842922D01*
X200254352Y-98782833D01*
X200250500Y-98752167D01*
X200250500Y-88611229D01*
X200270185Y-88544190D01*
X200322989Y-88498435D01*
X200392147Y-88488491D01*
X200455703Y-88517516D01*
X200462181Y-88523548D01*
X200647048Y-88708415D01*
X200647049Y-88708416D01*
X200734742Y-88796109D01*
X200751585Y-88812952D01*
X200874498Y-88895080D01*
X200874511Y-88895087D01*
X200980395Y-88938945D01*
X201011087Y-88951658D01*
X201011091Y-88951658D01*
X201011092Y-88951659D01*
X201156079Y-88980500D01*
X201156082Y-88980500D01*
X201334612Y-88980500D01*
X201401651Y-89000185D01*
X201447406Y-89052989D01*
X201457350Y-89122147D01*
X201449174Y-89151947D01*
X201428909Y-89200873D01*
X201428908Y-89200876D01*
X201428907Y-89200880D01*
X201389500Y-89398992D01*
X201389500Y-89601007D01*
X201428907Y-89799119D01*
X201428909Y-89799127D01*
X201506212Y-89985752D01*
X201506217Y-89985762D01*
X201618441Y-90153718D01*
X201761279Y-90296556D01*
X201761282Y-90296558D01*
X201834391Y-90345408D01*
X201879195Y-90399018D01*
X201889500Y-90448509D01*
X201889500Y-92713918D01*
X201889500Y-92713920D01*
X201889499Y-92713920D01*
X201918340Y-92858907D01*
X201918343Y-92858917D01*
X201974914Y-92995492D01*
X202007812Y-93044727D01*
X202007813Y-93044730D01*
X202057046Y-93118414D01*
X202057052Y-93118421D01*
X208113615Y-99174982D01*
X208147100Y-99236305D01*
X208144319Y-99299552D01*
X208105914Y-99422804D01*
X208103590Y-99448384D01*
X208099500Y-99493386D01*
X208099500Y-100506613D01*
X208105913Y-100577192D01*
X208105913Y-100577194D01*
X208105914Y-100577196D01*
X208156522Y-100739606D01*
X208217324Y-100840185D01*
X208244530Y-100885188D01*
X208364811Y-101005469D01*
X208364813Y-101005470D01*
X208364815Y-101005472D01*
X208510394Y-101093478D01*
X208672804Y-101144086D01*
X208743384Y-101150500D01*
X208743387Y-101150500D01*
X209256613Y-101150500D01*
X209256616Y-101150500D01*
X209327196Y-101144086D01*
X209489606Y-101093478D01*
X209633597Y-101006431D01*
X209701148Y-100988596D01*
X209766636Y-101009447D01*
X209823689Y-101047569D01*
X209823693Y-101047571D01*
X209987476Y-101115412D01*
X209987483Y-101115415D01*
X210000000Y-101117904D01*
X210000000Y-101117903D01*
X210500000Y-101117903D01*
X210512516Y-101115415D01*
X210512523Y-101115412D01*
X210676306Y-101047571D01*
X210676316Y-101047566D01*
X210823716Y-100949076D01*
X210823720Y-100949073D01*
X210949073Y-100823720D01*
X210949076Y-100823716D01*
X211047566Y-100676316D01*
X211047571Y-100676307D01*
X211115413Y-100512520D01*
X211115415Y-100512512D01*
X211148071Y-100348336D01*
X219299500Y-100348336D01*
X219299500Y-100651663D01*
X219333457Y-100953048D01*
X219333459Y-100953060D01*
X219333460Y-100953063D01*
X219344760Y-101002571D01*
X219400953Y-101248771D01*
X219400957Y-101248783D01*
X219501133Y-101535068D01*
X219632733Y-101808338D01*
X219632735Y-101808341D01*
X219794108Y-102065164D01*
X219983221Y-102302304D01*
X220197696Y-102516779D01*
X220434836Y-102705892D01*
X220691659Y-102867265D01*
X220964935Y-102998868D01*
X221179951Y-103074105D01*
X221251216Y-103099042D01*
X221251228Y-103099046D01*
X221546937Y-103166540D01*
X221546946Y-103166541D01*
X221546951Y-103166542D01*
X221747874Y-103189180D01*
X221848337Y-103200499D01*
X221848340Y-103200500D01*
X221848343Y-103200500D01*
X222151660Y-103200500D01*
X222151661Y-103200499D01*
X222305694Y-103183144D01*
X222453048Y-103166542D01*
X222453051Y-103166541D01*
X222453063Y-103166540D01*
X222748772Y-103099046D01*
X223035065Y-102998868D01*
X223308341Y-102867265D01*
X223565164Y-102705892D01*
X223802304Y-102516779D01*
X224016779Y-102302304D01*
X224205892Y-102065164D01*
X224367265Y-101808341D01*
X224498868Y-101535065D01*
X224599046Y-101248772D01*
X224666540Y-100953063D01*
X224666990Y-100949076D01*
X224686184Y-100778716D01*
X224700500Y-100651657D01*
X224700500Y-100348343D01*
X224680061Y-100166940D01*
X224666542Y-100046951D01*
X224666541Y-100046946D01*
X224666540Y-100046937D01*
X224599046Y-99751228D01*
X224598616Y-99750000D01*
X224508823Y-99493386D01*
X224498868Y-99464935D01*
X224367265Y-99191659D01*
X224205892Y-98934836D01*
X224016779Y-98697696D01*
X223802304Y-98483221D01*
X223565164Y-98294108D01*
X223308341Y-98132735D01*
X223308338Y-98132733D01*
X223035068Y-98001133D01*
X222748783Y-97900957D01*
X222748771Y-97900953D01*
X222520556Y-97848864D01*
X222453063Y-97833460D01*
X222453060Y-97833459D01*
X222453048Y-97833457D01*
X222151663Y-97799500D01*
X222151657Y-97799500D01*
X221848343Y-97799500D01*
X221848336Y-97799500D01*
X221546951Y-97833457D01*
X221546937Y-97833460D01*
X221251228Y-97900953D01*
X221251216Y-97900957D01*
X220964931Y-98001133D01*
X220691661Y-98132733D01*
X220434837Y-98294107D01*
X220197696Y-98483220D01*
X219983220Y-98697696D01*
X219794107Y-98934837D01*
X219632733Y-99191661D01*
X219501133Y-99464931D01*
X219400957Y-99751216D01*
X219400953Y-99751228D01*
X219333460Y-100046937D01*
X219333457Y-100046951D01*
X219299500Y-100348336D01*
X211148071Y-100348336D01*
X211149999Y-100338645D01*
X211150000Y-100338643D01*
X211150000Y-100250000D01*
X210500000Y-100250000D01*
X210500000Y-101117903D01*
X210000000Y-101117903D01*
X210000000Y-100049728D01*
X210038060Y-100141614D01*
X210108386Y-100211940D01*
X210200272Y-100250000D01*
X210299728Y-100250000D01*
X210391614Y-100211940D01*
X210461940Y-100141614D01*
X210500000Y-100049728D01*
X210500000Y-99950272D01*
X210461940Y-99858386D01*
X210391614Y-99788060D01*
X210299728Y-99750000D01*
X210500000Y-99750000D01*
X211150000Y-99750000D01*
X211150000Y-99661357D01*
X211149999Y-99661353D01*
X211115415Y-99487487D01*
X211115413Y-99487479D01*
X211047571Y-99323692D01*
X211047566Y-99323683D01*
X210949076Y-99176283D01*
X210949073Y-99176279D01*
X210823720Y-99050926D01*
X210823716Y-99050923D01*
X210676316Y-98952433D01*
X210676307Y-98952428D01*
X210512519Y-98884585D01*
X210500000Y-98882094D01*
X210500000Y-99750000D01*
X210299728Y-99750000D01*
X210200272Y-99750000D01*
X210108386Y-99788060D01*
X210038060Y-99858386D01*
X210000000Y-99950272D01*
X210000000Y-98882095D01*
X209999999Y-98882094D01*
X209987480Y-98884585D01*
X209987476Y-98884586D01*
X209900505Y-98920611D01*
X209831036Y-98928080D01*
X209768557Y-98896804D01*
X209732905Y-98836715D01*
X209731436Y-98830242D01*
X209721659Y-98781092D01*
X209721658Y-98781091D01*
X209721658Y-98781087D01*
X209709679Y-98752167D01*
X209665087Y-98644511D01*
X209665080Y-98644498D01*
X209582952Y-98521585D01*
X209544587Y-98483220D01*
X209478416Y-98417049D01*
X203426819Y-92365451D01*
X203393334Y-92304128D01*
X203390500Y-92277770D01*
X203390500Y-91611229D01*
X203410185Y-91544190D01*
X203462989Y-91498435D01*
X203532147Y-91488491D01*
X203595703Y-91517516D01*
X203602181Y-91523548D01*
X205557048Y-93478415D01*
X205557049Y-93478416D01*
X205610798Y-93532165D01*
X205661585Y-93582952D01*
X205784498Y-93665080D01*
X205784511Y-93665087D01*
X205921082Y-93721656D01*
X205921087Y-93721658D01*
X205921091Y-93721658D01*
X205921092Y-93721659D01*
X206066079Y-93750500D01*
X206066082Y-93750500D01*
X219573920Y-93750500D01*
X219671462Y-93731096D01*
X219718913Y-93721658D01*
X219855495Y-93665084D01*
X219904729Y-93632186D01*
X219978416Y-93582952D01*
X220841264Y-92720102D01*
X220902585Y-92686619D01*
X220972276Y-92691603D01*
X220985240Y-92697302D01*
X221000772Y-92705216D01*
X221000775Y-92705217D01*
X221000781Y-92705220D01*
X221150300Y-92753801D01*
X221195465Y-92768477D01*
X221296557Y-92784488D01*
X221397648Y-92800500D01*
X221397649Y-92800500D01*
X221602351Y-92800500D01*
X221602352Y-92800500D01*
X221804534Y-92768477D01*
X221999219Y-92705220D01*
X222181610Y-92612287D01*
X222274590Y-92544732D01*
X222347213Y-92491971D01*
X222347215Y-92491968D01*
X222347219Y-92491966D01*
X222491966Y-92347219D01*
X222491968Y-92347215D01*
X222491971Y-92347213D01*
X222577264Y-92229815D01*
X222612287Y-92181610D01*
X222705220Y-91999219D01*
X222768477Y-91804534D01*
X222800500Y-91602352D01*
X222800500Y-91397648D01*
X222768477Y-91195466D01*
X222705220Y-91000781D01*
X222705218Y-91000778D01*
X222705218Y-91000776D01*
X222670846Y-90933318D01*
X222612287Y-90818390D01*
X222604556Y-90807749D01*
X222491971Y-90652786D01*
X222347213Y-90508028D01*
X222181613Y-90387715D01*
X222181612Y-90387714D01*
X222181610Y-90387713D01*
X222098578Y-90345406D01*
X221999223Y-90294781D01*
X221804534Y-90231522D01*
X221629995Y-90203878D01*
X221602352Y-90199500D01*
X221397648Y-90199500D01*
X221373329Y-90203351D01*
X221195465Y-90231522D01*
X221000776Y-90294781D01*
X220818386Y-90387715D01*
X220652786Y-90508028D01*
X220508028Y-90652786D01*
X220387715Y-90818386D01*
X220294781Y-91000776D01*
X220235118Y-91184401D01*
X220204868Y-91233763D01*
X219225451Y-92213181D01*
X219164128Y-92246666D01*
X219137770Y-92249500D01*
X213874500Y-92249500D01*
X213807461Y-92229815D01*
X213761706Y-92177011D01*
X213750500Y-92125500D01*
X213750500Y-91046112D01*
X213770185Y-90979073D01*
X213822989Y-90933318D01*
X213835495Y-90928406D01*
X213869334Y-90917194D01*
X214018656Y-90825092D01*
X214142712Y-90701036D01*
X214234814Y-90551714D01*
X214289999Y-90385177D01*
X214300500Y-90282389D01*
X214300499Y-90145776D01*
X214320183Y-90078737D01*
X214321399Y-90076883D01*
X214347460Y-90037881D01*
X214347460Y-90037880D01*
X214347464Y-90037875D01*
X214404038Y-89901293D01*
X214432817Y-89756616D01*
X214432880Y-89756300D01*
X214432880Y-89608459D01*
X214404039Y-89463472D01*
X214404038Y-89463471D01*
X214404038Y-89463467D01*
X214347464Y-89326885D01*
X214321395Y-89287870D01*
X214300519Y-89221193D01*
X214300499Y-89218981D01*
X214300499Y-89082378D01*
X214300498Y-89082361D01*
X214289999Y-88979583D01*
X214289998Y-88979580D01*
X214280746Y-88951659D01*
X214234814Y-88813046D01*
X214142712Y-88663724D01*
X214018656Y-88539668D01*
X213869334Y-88447566D01*
X213807558Y-88427095D01*
X213750115Y-88387323D01*
X213723292Y-88322807D01*
X213722946Y-88299660D01*
X213725921Y-88261853D01*
X213046447Y-87582380D01*
X213052661Y-87582380D01*
X213154394Y-87555121D01*
X213245606Y-87502460D01*
X213320080Y-87427986D01*
X213372741Y-87336774D01*
X213400000Y-87235041D01*
X213400000Y-87228828D01*
X214079474Y-87908302D01*
X214079474Y-87908301D01*
X214111859Y-87863729D01*
X214204755Y-87681411D01*
X214265684Y-87493896D01*
X214267989Y-87486798D01*
X214300000Y-87284697D01*
X214300000Y-87080062D01*
X214267990Y-86877962D01*
X214204755Y-86683348D01*
X214111857Y-86501027D01*
X214086194Y-86465704D01*
X214086192Y-86465702D01*
X214079475Y-86456457D01*
X214079474Y-86456456D01*
X213400000Y-87135931D01*
X213400000Y-87129719D01*
X213372741Y-87027986D01*
X213320080Y-86936774D01*
X213245606Y-86862300D01*
X213154394Y-86809639D01*
X213052661Y-86782380D01*
X213046446Y-86782380D01*
X213431144Y-86397682D01*
X220200000Y-86397682D01*
X220200000Y-86602317D01*
X220232009Y-86804417D01*
X220295244Y-86999031D01*
X220388141Y-87181350D01*
X220388147Y-87181359D01*
X220420523Y-87225921D01*
X220420524Y-87225922D01*
X221100000Y-86546446D01*
X221100000Y-86552661D01*
X221127259Y-86654394D01*
X221179920Y-86745606D01*
X221254394Y-86820080D01*
X221345606Y-86872741D01*
X221447339Y-86900000D01*
X221453553Y-86900000D01*
X220774076Y-87579474D01*
X220818650Y-87611859D01*
X221000968Y-87704755D01*
X221195582Y-87767990D01*
X221397683Y-87800000D01*
X221602317Y-87800000D01*
X221804417Y-87767990D01*
X221999031Y-87704755D01*
X222181349Y-87611859D01*
X222225921Y-87579474D01*
X221546447Y-86900000D01*
X221552661Y-86900000D01*
X221654394Y-86872741D01*
X221745606Y-86820080D01*
X221820080Y-86745606D01*
X221872741Y-86654394D01*
X221900000Y-86552661D01*
X221900000Y-86546448D01*
X222579474Y-87225922D01*
X222579474Y-87225921D01*
X222611859Y-87181349D01*
X222704755Y-86999031D01*
X222767990Y-86804417D01*
X222800000Y-86602317D01*
X222800000Y-86397682D01*
X222767990Y-86195582D01*
X222704755Y-86000968D01*
X222611859Y-85818650D01*
X222579474Y-85774077D01*
X222579474Y-85774076D01*
X221900000Y-86453551D01*
X221900000Y-86447339D01*
X221872741Y-86345606D01*
X221820080Y-86254394D01*
X221745606Y-86179920D01*
X221654394Y-86127259D01*
X221552661Y-86100000D01*
X221546446Y-86100000D01*
X222225922Y-85420524D01*
X222225921Y-85420523D01*
X222181359Y-85388147D01*
X222181350Y-85388141D01*
X221999031Y-85295244D01*
X221804417Y-85232009D01*
X221602317Y-85200000D01*
X221397683Y-85200000D01*
X221195582Y-85232009D01*
X221000968Y-85295244D01*
X220818644Y-85388143D01*
X220774077Y-85420523D01*
X220774077Y-85420524D01*
X221453554Y-86100000D01*
X221447339Y-86100000D01*
X221345606Y-86127259D01*
X221254394Y-86179920D01*
X221179920Y-86254394D01*
X221127259Y-86345606D01*
X221100000Y-86447339D01*
X221100000Y-86453553D01*
X220420524Y-85774077D01*
X220420523Y-85774077D01*
X220388143Y-85818644D01*
X220295244Y-86000968D01*
X220232009Y-86195582D01*
X220200000Y-86397682D01*
X213431144Y-86397682D01*
X213725922Y-86102904D01*
X213725921Y-86102903D01*
X213681359Y-86070527D01*
X213681350Y-86070521D01*
X213499031Y-85977624D01*
X213304417Y-85914389D01*
X213102317Y-85882380D01*
X212897683Y-85882380D01*
X212695582Y-85914389D01*
X212500968Y-85977624D01*
X212318644Y-86070523D01*
X212274077Y-86102903D01*
X212274077Y-86102904D01*
X212953554Y-86782380D01*
X212947339Y-86782380D01*
X212845606Y-86809639D01*
X212754394Y-86862300D01*
X212679920Y-86936774D01*
X212627259Y-87027986D01*
X212600000Y-87129719D01*
X212600000Y-87135933D01*
X211920524Y-86456457D01*
X211920523Y-86456457D01*
X211888143Y-86501024D01*
X211795244Y-86683348D01*
X211732009Y-86877962D01*
X211700000Y-87080062D01*
X211700000Y-87284697D01*
X211732009Y-87486797D01*
X211795244Y-87681411D01*
X211888141Y-87863730D01*
X211888147Y-87863739D01*
X211920523Y-87908301D01*
X211920524Y-87908302D01*
X212600000Y-87228826D01*
X212600000Y-87235041D01*
X212627259Y-87336774D01*
X212679920Y-87427986D01*
X212754394Y-87502460D01*
X212845606Y-87555121D01*
X212947339Y-87582380D01*
X212953553Y-87582380D01*
X212274076Y-88261854D01*
X212277052Y-88299662D01*
X212262687Y-88368039D01*
X212213636Y-88417795D01*
X212192440Y-88427095D01*
X212130672Y-88447564D01*
X212130663Y-88447567D01*
X211981342Y-88539669D01*
X211857289Y-88663722D01*
X211765187Y-88813043D01*
X211765185Y-88813048D01*
X211758590Y-88832950D01*
X211710001Y-88979583D01*
X211710001Y-88979584D01*
X211710000Y-88979584D01*
X211699500Y-89082363D01*
X211699500Y-90282381D01*
X211699501Y-90282398D01*
X211710000Y-90385176D01*
X211710001Y-90385179D01*
X211730987Y-90448509D01*
X211765186Y-90551714D01*
X211857288Y-90701036D01*
X211981344Y-90825092D01*
X212130666Y-90917194D01*
X212164500Y-90928405D01*
X212221947Y-90968176D01*
X212248772Y-91032691D01*
X212249500Y-91046112D01*
X212249500Y-92125500D01*
X212229815Y-92192539D01*
X212177011Y-92238294D01*
X212125500Y-92249500D01*
X206502229Y-92249500D01*
X206435190Y-92229815D01*
X206414548Y-92213181D01*
X203922745Y-89721377D01*
X203889260Y-89660054D01*
X203888810Y-89609500D01*
X203890500Y-89601005D01*
X203890500Y-89398996D01*
X203890499Y-89398992D01*
X203851092Y-89200880D01*
X203851091Y-89200873D01*
X203773786Y-89014244D01*
X203720094Y-88933889D01*
X203699217Y-88867214D01*
X203717701Y-88799834D01*
X203720078Y-88796134D01*
X203773786Y-88715756D01*
X203851091Y-88529127D01*
X203890500Y-88331003D01*
X203890500Y-88128997D01*
X203851091Y-87930873D01*
X203817451Y-87849661D01*
X203809983Y-87780194D01*
X203829592Y-87735144D01*
X203829101Y-87734876D01*
X203832102Y-87729379D01*
X203832748Y-87727896D01*
X203833352Y-87727089D01*
X203883597Y-87592376D01*
X203883598Y-87592372D01*
X203889999Y-87532844D01*
X203890000Y-87532827D01*
X203890000Y-87210000D01*
X203005866Y-87210000D01*
X202981674Y-87207617D01*
X202966004Y-87204500D01*
X202966003Y-87204500D01*
X202925830Y-87204500D01*
X202940075Y-87190255D01*
X202989444Y-87104745D01*
X203015000Y-87009370D01*
X203015000Y-86910630D01*
X202989444Y-86815255D01*
X202940075Y-86729745D01*
X202920330Y-86710000D01*
X203890000Y-86710000D01*
X203890000Y-86387172D01*
X203889999Y-86387155D01*
X203883598Y-86327627D01*
X203883596Y-86327620D01*
X203833572Y-86193496D01*
X203833571Y-86193494D01*
X203833357Y-86192918D01*
X203833350Y-86192906D01*
X203747190Y-86077812D01*
X203747187Y-86077809D01*
X203632093Y-85991649D01*
X203632086Y-85991645D01*
X203497379Y-85941403D01*
X203497372Y-85941401D01*
X203437844Y-85935000D01*
X202890000Y-85935000D01*
X202890000Y-86679670D01*
X202870255Y-86659925D01*
X202784745Y-86610556D01*
X202689370Y-86585000D01*
X202590630Y-86585000D01*
X202495255Y-86610556D01*
X202409745Y-86659925D01*
X202390000Y-86679670D01*
X202390000Y-85935000D01*
X201842155Y-85935000D01*
X201782627Y-85941401D01*
X201782620Y-85941403D01*
X201647913Y-85991645D01*
X201647906Y-85991649D01*
X201532812Y-86077809D01*
X201532809Y-86077812D01*
X201446649Y-86192906D01*
X201446645Y-86192913D01*
X201396403Y-86327620D01*
X201396401Y-86327627D01*
X201390000Y-86387155D01*
X201390000Y-86710000D01*
X202359670Y-86710000D01*
X202339925Y-86729745D01*
X202290556Y-86815255D01*
X202265000Y-86910630D01*
X202265000Y-87009370D01*
X202290556Y-87104745D01*
X202339925Y-87190255D01*
X202354170Y-87204500D01*
X202313997Y-87204500D01*
X202313996Y-87204500D01*
X202298326Y-87207617D01*
X202274134Y-87210000D01*
X201366419Y-87210000D01*
X201357042Y-87215120D01*
X201287350Y-87210136D01*
X201243003Y-87181635D01*
X200286819Y-86225451D01*
X200253334Y-86164128D01*
X200250500Y-86137770D01*
X200250500Y-82426079D01*
X200221659Y-82281092D01*
X200221658Y-82281091D01*
X200221658Y-82281087D01*
X200221656Y-82281082D01*
X200165087Y-82144511D01*
X200165080Y-82144498D01*
X200082952Y-82021585D01*
X200082951Y-82021584D01*
X199987951Y-81926584D01*
X199883416Y-81822048D01*
X199801355Y-81767218D01*
X199760495Y-81739916D01*
X199760494Y-81739915D01*
X199760492Y-81739914D01*
X199760490Y-81739913D01*
X199623917Y-81683343D01*
X199623907Y-81683340D01*
X199478920Y-81654500D01*
X199478918Y-81654500D01*
X194367631Y-81654500D01*
X194300592Y-81634815D01*
X194267313Y-81603386D01*
X194139517Y-81427490D01*
X193972510Y-81260483D01*
X193781433Y-81121657D01*
X193570996Y-81014433D01*
X193346368Y-80941446D01*
X193113097Y-80904500D01*
X193113092Y-80904500D01*
X192876908Y-80904500D01*
X192876903Y-80904500D01*
X192643631Y-80941446D01*
X192419003Y-81014433D01*
X192208566Y-81121657D01*
X192099550Y-81200862D01*
X192017490Y-81260483D01*
X192017488Y-81260485D01*
X192017487Y-81260485D01*
X191850485Y-81427487D01*
X191850485Y-81427488D01*
X191850483Y-81427490D01*
X191790862Y-81509550D01*
X191711657Y-81618566D01*
X191604433Y-81829003D01*
X191531446Y-82053631D01*
X191494500Y-82286902D01*
X171495500Y-82286902D01*
X171458553Y-82053631D01*
X171385566Y-81829003D01*
X171311346Y-81683340D01*
X171278343Y-81618567D01*
X171139517Y-81427490D01*
X170972510Y-81260483D01*
X170781433Y-81121657D01*
X170570996Y-81014433D01*
X170346368Y-80941446D01*
X170113097Y-80904500D01*
X170113092Y-80904500D01*
X169876908Y-80904500D01*
X169876903Y-80904500D01*
X169643631Y-80941446D01*
X169419003Y-81014433D01*
X169208566Y-81121657D01*
X169099550Y-81200862D01*
X169017490Y-81260483D01*
X169017488Y-81260485D01*
X169017487Y-81260485D01*
X168850485Y-81427487D01*
X168850485Y-81427488D01*
X168850483Y-81427490D01*
X168790862Y-81509550D01*
X168711657Y-81618566D01*
X168604433Y-81829003D01*
X168531446Y-82053631D01*
X168494500Y-82286902D01*
X168494500Y-82523097D01*
X168528511Y-82737833D01*
X168519556Y-82807126D01*
X168493719Y-82844912D01*
X163875451Y-87463181D01*
X163814128Y-87496666D01*
X163787770Y-87499500D01*
X162285270Y-87499500D01*
X162218231Y-87479815D01*
X162216378Y-87478601D01*
X162176552Y-87451989D01*
X162176547Y-87451987D01*
X162012667Y-87384106D01*
X162012658Y-87384103D01*
X161838694Y-87349500D01*
X161838691Y-87349500D01*
X161161309Y-87349500D01*
X161161306Y-87349500D01*
X160987341Y-87384103D01*
X160987332Y-87384106D01*
X160823459Y-87451983D01*
X160823446Y-87451990D01*
X160675965Y-87550535D01*
X160675961Y-87550538D01*
X160550538Y-87675961D01*
X160550535Y-87675965D01*
X160451990Y-87823446D01*
X160451983Y-87823459D01*
X160384106Y-87987332D01*
X160384103Y-87987341D01*
X160349500Y-88161304D01*
X156500500Y-88161304D01*
X156500500Y-75848336D01*
X157149500Y-75848336D01*
X157149500Y-76151663D01*
X157183457Y-76453048D01*
X157183460Y-76453062D01*
X157250953Y-76748771D01*
X157250957Y-76748783D01*
X157351133Y-77035068D01*
X157482733Y-77308338D01*
X157482735Y-77308341D01*
X157644108Y-77565164D01*
X157833221Y-77802304D01*
X158047696Y-78016779D01*
X158284836Y-78205892D01*
X158541659Y-78367265D01*
X158814935Y-78498868D01*
X159029951Y-78574105D01*
X159101216Y-78599042D01*
X159101228Y-78599046D01*
X159396937Y-78666540D01*
X159396946Y-78666541D01*
X159396951Y-78666542D01*
X159597874Y-78689180D01*
X159698337Y-78700499D01*
X159698340Y-78700500D01*
X159698343Y-78700500D01*
X160001660Y-78700500D01*
X160001661Y-78700499D01*
X160155694Y-78683144D01*
X160303048Y-78666542D01*
X160303051Y-78666541D01*
X160303063Y-78666540D01*
X160598772Y-78599046D01*
X160885065Y-78498868D01*
X161158341Y-78367265D01*
X161415164Y-78205892D01*
X161652304Y-78016779D01*
X161866779Y-77802304D01*
X162055892Y-77565164D01*
X162217265Y-77308341D01*
X162348868Y-77035065D01*
X162449046Y-76748772D01*
X162516540Y-76453063D01*
X162550500Y-76151657D01*
X162550500Y-75948386D01*
X198474500Y-75948386D01*
X198474500Y-76961613D01*
X198480913Y-77032192D01*
X198480913Y-77032194D01*
X198480914Y-77032196D01*
X198511874Y-77131553D01*
X198531522Y-77194606D01*
X198619530Y-77340188D01*
X198739811Y-77460469D01*
X198739813Y-77460470D01*
X198739815Y-77460472D01*
X198885394Y-77548478D01*
X199047804Y-77599086D01*
X199118384Y-77605500D01*
X199118387Y-77605500D01*
X199631613Y-77605500D01*
X199631616Y-77605500D01*
X199702196Y-77599086D01*
X199864606Y-77548478D01*
X200008125Y-77461717D01*
X200075676Y-77443882D01*
X200141162Y-77464733D01*
X200198450Y-77503011D01*
X200198457Y-77503015D01*
X200307707Y-77548267D01*
X200362334Y-77570894D01*
X200362336Y-77570894D01*
X200362341Y-77570896D01*
X200536304Y-77605499D01*
X200536307Y-77605500D01*
X200536309Y-77605500D01*
X200713693Y-77605500D01*
X200713694Y-77605499D01*
X200771682Y-77593964D01*
X200887658Y-77570896D01*
X200887661Y-77570894D01*
X200887666Y-77570894D01*
X201051547Y-77503013D01*
X201199035Y-77404464D01*
X201324464Y-77279035D01*
X201423013Y-77131547D01*
X201490894Y-76967666D01*
X201492098Y-76961616D01*
X201525499Y-76793695D01*
X201525500Y-76793693D01*
X201525500Y-76116306D01*
X201525499Y-76116304D01*
X201490896Y-75942341D01*
X201490893Y-75942332D01*
X201470176Y-75892316D01*
X201451959Y-75848336D01*
X219299500Y-75848336D01*
X219299500Y-76151663D01*
X219333457Y-76453048D01*
X219333460Y-76453062D01*
X219400953Y-76748771D01*
X219400957Y-76748783D01*
X219501133Y-77035068D01*
X219632733Y-77308338D01*
X219632735Y-77308341D01*
X219794108Y-77565164D01*
X219983221Y-77802304D01*
X220197696Y-78016779D01*
X220434836Y-78205892D01*
X220691659Y-78367265D01*
X220964935Y-78498868D01*
X221179951Y-78574105D01*
X221251216Y-78599042D01*
X221251228Y-78599046D01*
X221546937Y-78666540D01*
X221546946Y-78666541D01*
X221546951Y-78666542D01*
X221747874Y-78689180D01*
X221848337Y-78700499D01*
X221848340Y-78700500D01*
X221848343Y-78700500D01*
X222151660Y-78700500D01*
X222151661Y-78700499D01*
X222305694Y-78683144D01*
X222453048Y-78666542D01*
X222453051Y-78666541D01*
X222453063Y-78666540D01*
X222748772Y-78599046D01*
X223035065Y-78498868D01*
X223308341Y-78367265D01*
X223565164Y-78205892D01*
X223802304Y-78016779D01*
X224016779Y-77802304D01*
X224205892Y-77565164D01*
X224367265Y-77308341D01*
X224498868Y-77035065D01*
X224599046Y-76748772D01*
X224666540Y-76453063D01*
X224700500Y-76151657D01*
X224700500Y-75848343D01*
X224669118Y-75569815D01*
X224666542Y-75546951D01*
X224666541Y-75546946D01*
X224666540Y-75546937D01*
X224599046Y-75251228D01*
X224498868Y-74964935D01*
X224367265Y-74691659D01*
X224205892Y-74434836D01*
X224016779Y-74197696D01*
X223802304Y-73983221D01*
X223565164Y-73794108D01*
X223308341Y-73632735D01*
X223308338Y-73632733D01*
X223035068Y-73501133D01*
X222748783Y-73400957D01*
X222748771Y-73400953D01*
X222520556Y-73348864D01*
X222453063Y-73333460D01*
X222453060Y-73333459D01*
X222453048Y-73333457D01*
X222151663Y-73299500D01*
X222151657Y-73299500D01*
X221848343Y-73299500D01*
X221848336Y-73299500D01*
X221546951Y-73333457D01*
X221546937Y-73333460D01*
X221251228Y-73400953D01*
X221251216Y-73400957D01*
X220964931Y-73501133D01*
X220691661Y-73632733D01*
X220434837Y-73794107D01*
X220197696Y-73983220D01*
X219983220Y-74197696D01*
X219794107Y-74434837D01*
X219632733Y-74691661D01*
X219501133Y-74964931D01*
X219400957Y-75251216D01*
X219400953Y-75251228D01*
X219333460Y-75546937D01*
X219333457Y-75546951D01*
X219299500Y-75848336D01*
X201451959Y-75848336D01*
X201423016Y-75778458D01*
X201423009Y-75778446D01*
X201324464Y-75630965D01*
X201324461Y-75630961D01*
X201199038Y-75505538D01*
X201199034Y-75505535D01*
X201051553Y-75406990D01*
X201051540Y-75406983D01*
X200887667Y-75339106D01*
X200887658Y-75339103D01*
X200713694Y-75304500D01*
X200713691Y-75304500D01*
X200536309Y-75304500D01*
X200536306Y-75304500D01*
X200362341Y-75339103D01*
X200362332Y-75339106D01*
X200198460Y-75406983D01*
X200198449Y-75406989D01*
X200141162Y-75445267D01*
X200074484Y-75466144D01*
X200008122Y-75448281D01*
X199864606Y-75361522D01*
X199792659Y-75339103D01*
X199702196Y-75310914D01*
X199702194Y-75310913D01*
X199702192Y-75310913D01*
X199652778Y-75306423D01*
X199631616Y-75304500D01*
X199118384Y-75304500D01*
X199099145Y-75306248D01*
X199047807Y-75310913D01*
X198885393Y-75361522D01*
X198739811Y-75449530D01*
X198619530Y-75569811D01*
X198531522Y-75715393D01*
X198480913Y-75877807D01*
X198474500Y-75948386D01*
X162550500Y-75948386D01*
X162550500Y-75848343D01*
X162519118Y-75569815D01*
X162516542Y-75546951D01*
X162516541Y-75546946D01*
X162516540Y-75546937D01*
X162449046Y-75251228D01*
X162348868Y-74964935D01*
X162217265Y-74691659D01*
X162055892Y-74434836D01*
X161866779Y-74197696D01*
X161652304Y-73983221D01*
X161415164Y-73794108D01*
X161158341Y-73632735D01*
X161158338Y-73632733D01*
X160885068Y-73501133D01*
X160598783Y-73400957D01*
X160598771Y-73400953D01*
X160370556Y-73348864D01*
X160303063Y-73333460D01*
X160303060Y-73333459D01*
X160303048Y-73333457D01*
X160001663Y-73299500D01*
X160001657Y-73299500D01*
X159698343Y-73299500D01*
X159698336Y-73299500D01*
X159396951Y-73333457D01*
X159396937Y-73333460D01*
X159101228Y-73400953D01*
X159101216Y-73400957D01*
X158814931Y-73501133D01*
X158541661Y-73632733D01*
X158284837Y-73794107D01*
X158047696Y-73983220D01*
X157833220Y-74197696D01*
X157644107Y-74434837D01*
X157482733Y-74691661D01*
X157351133Y-74964931D01*
X157250957Y-75251216D01*
X157250953Y-75251228D01*
X157183460Y-75546937D01*
X157183457Y-75546951D01*
X157149500Y-75848336D01*
X156500500Y-75848336D01*
X156500500Y-72624499D01*
X156520185Y-72557460D01*
X156572989Y-72511705D01*
X156624500Y-72500499D01*
X225375500Y-72500499D01*
X225442539Y-72520184D01*
G37*
G04 #@! TD.AperFunction*
M02*
