G04 #@! TF.GenerationSoftware,KiCad,Pcbnew,10.0.3*
G04 #@! TF.CreationDate,2026-07-21T15:24:37+02:00*
G04 #@! TF.ProjectId,Solar charger,536f6c61-7220-4636-9861-726765722e6b,rev?*
G04 #@! TF.SameCoordinates,Original*
G04 #@! TF.FileFunction,Soldermask,Bot*
G04 #@! TF.FilePolarity,Negative*
%FSLAX46Y46*%
G04 Gerber Fmt 4.6, Leading zero omitted, Abs format (unit mm)*
G04 Created by KiCad (PCBNEW 10.0.3) date 2026-07-21 15:24:37*
%MOMM*%
%LPD*%
G01*
G04 APERTURE LIST*
G04 Aperture macros list*
%AMRoundRect*
0 Rectangle with rounded corners*
0 $1 Rounding radius*
0 $2 $3 $4 $5 $6 $7 $8 $9 X,Y pos of 4 corners*
0 Add a 4 corners polygon primitive as box body*
4,1,4,$2,$3,$4,$5,$6,$7,$8,$9,$2,$3,0*
0 Add four circle primitives for the rounded corners*
1,1,$1+$1,$2,$3*
1,1,$1+$1,$4,$5*
1,1,$1+$1,$6,$7*
1,1,$1+$1,$8,$9*
0 Add four rect primitives between the rounded corners*
20,1,$1+$1,$2,$3,$4,$5,0*
20,1,$1+$1,$4,$5,$6,$7,0*
20,1,$1+$1,$6,$7,$8,$9,0*
20,1,$1+$1,$8,$9,$2,$3,0*%
G04 Aperture macros list end*
%ADD10C,0.700000*%
%ADD11C,4.400000*%
%ADD12RoundRect,0.250000X-1.050000X-1.050000X1.050000X-1.050000X1.050000X1.050000X-1.050000X1.050000X0*%
%ADD13C,2.600000*%
%ADD14RoundRect,0.250000X1.050000X1.050000X-1.050000X1.050000X-1.050000X-1.050000X1.050000X-1.050000X0*%
%ADD15RoundRect,0.250000X-1.050000X1.050000X-1.050000X-1.050000X1.050000X-1.050000X1.050000X1.050000X0*%
%ADD16RoundRect,0.250000X0.550000X-0.550000X0.550000X0.550000X-0.550000X0.550000X-0.550000X-0.550000X0*%
%ADD17C,1.600000*%
%ADD18C,2.000000*%
%ADD19R,1.500000X1.050000*%
%ADD20O,1.500000X1.050000*%
G04 APERTURE END LIST*
D10*
X158975000Y-74750000D03*
X158491726Y-75916726D03*
X158491726Y-73583274D03*
X157325000Y-76400000D03*
D11*
X157325000Y-74750000D03*
D10*
X157325000Y-73100000D03*
X156158274Y-75916726D03*
X156158274Y-73583274D03*
X155675000Y-74750000D03*
D12*
X199205000Y-100572500D03*
D13*
X204285000Y-100572500D03*
D12*
X210895000Y-100650000D03*
D13*
X215975000Y-100650000D03*
D14*
X205455000Y-75750000D03*
D13*
X200375000Y-75750000D03*
D15*
X159575000Y-86600000D03*
D13*
X159575000Y-91680000D03*
D10*
X220300000Y-74725000D03*
X220783274Y-73558274D03*
X220783274Y-75891726D03*
X221950000Y-73075000D03*
D11*
X221950000Y-74725000D03*
D10*
X221950000Y-76375000D03*
X223116726Y-73558274D03*
X223116726Y-75891726D03*
X223600000Y-74725000D03*
D16*
X213000000Y-89682380D03*
D17*
X213000000Y-87182380D03*
D18*
X169995000Y-82405000D03*
X169995000Y-96405000D03*
X192995000Y-82405000D03*
X192995000Y-84945000D03*
X192995000Y-93865000D03*
X192995000Y-96405000D03*
D19*
X202640000Y-86960000D03*
D20*
X202640000Y-88230000D03*
X202640000Y-89500000D03*
D17*
X221500000Y-86500000D03*
X221500000Y-91500000D03*
D10*
X220375000Y-104300000D03*
X220858274Y-103133274D03*
X220858274Y-105466726D03*
X222025000Y-102650000D03*
D11*
X222025000Y-104300000D03*
D10*
X222025000Y-105950000D03*
X223191726Y-103133274D03*
X223191726Y-105466726D03*
X223675000Y-104300000D03*
X155400000Y-104400000D03*
X155883274Y-103233274D03*
X155883274Y-105566726D03*
X157050000Y-102750000D03*
D11*
X157050000Y-104400000D03*
D10*
X157050000Y-106050000D03*
X158216726Y-103233274D03*
X158216726Y-105566726D03*
X158700000Y-104400000D03*
M02*
