M48
; DRILL file KiCad 10.0.3 date 2026-07-21T15:22:16
; FORMAT={-:-/ absolute / metric / decimal}
; #@! TF.CreationDate,2026-07-21T15:22:16+02:00
; #@! TF.GenerationSoftware,Kicad,Pcbnew,10.0.3
; #@! TF.FileFunction,Plated,1,2,PTH
FMAT,2
METRIC
; #@! TA.AperFunction,Plated,PTH,ViaDrill
T1C0.300
; #@! TA.AperFunction,Plated,PTH,ComponentDrill
T2C0.400
; #@! TA.AperFunction,Plated,PTH,ComponentDrill
T3C0.750
; #@! TA.AperFunction,Plated,PTH,ComponentDrill
T4C0.800
; #@! TA.AperFunction,Plated,PTH,ComponentDrill
T5C1.000
; #@! TA.AperFunction,Plated,PTH,ComponentDrill
T6C1.300
; #@! TA.AperFunction,Plated,PTH,ComponentDrill
T7C2.200
%
G90
G05
T1
X196.5Y-83.5
X198.0Y-83.5
T2
X155.4Y-104.4
X155.675Y-74.75
X155.883Y-103.233
X155.883Y-105.567
X156.158Y-73.583
X156.158Y-75.917
X157.05Y-102.75
X157.05Y-106.05
X157.325Y-73.1
X157.325Y-76.4
X158.217Y-103.233
X158.217Y-105.567
X158.492Y-73.583
X158.492Y-75.917
X158.7Y-104.4
X158.975Y-74.75
X220.3Y-74.725
X220.375Y-104.3
X220.783Y-73.558
X220.783Y-75.892
X220.858Y-103.133
X220.858Y-105.467
X221.95Y-73.075
X221.95Y-76.375
X222.025Y-102.65
X222.025Y-105.95
X223.117Y-73.558
X223.117Y-75.892
X223.192Y-103.133
X223.192Y-105.467
X223.6Y-74.725
X223.675Y-104.3
T3
X202.64Y-86.96
X202.64Y-88.23
X202.64Y-89.5
T4
X213.0Y-87.182
X213.0Y-89.682
X221.5Y-86.5
X221.5Y-91.5
T5
X169.995Y-82.405
X169.995Y-96.405
X192.995Y-82.405
X192.995Y-84.945
X192.995Y-93.865
X192.995Y-96.405
T6
X159.575Y-86.6
X159.575Y-91.68
X199.205Y-100.572
X200.375Y-75.75
X204.285Y-100.572
X205.455Y-75.75
X210.895Y-100.65
X215.975Y-100.65
T7
X157.05Y-104.4
X157.325Y-74.75
X221.95Y-74.725
X222.025Y-104.3
M30
