G04 #@! TF.GenerationSoftware,KiCad,Pcbnew,10.0.3*
G04 #@! TF.CreationDate,2026-07-05T12:05:54+02:00*
G04 #@! TF.ProjectId,Solar charger,536f6c61-7220-4636-9861-726765722e6b,rev?*
G04 #@! TF.SameCoordinates,Original*
G04 #@! TF.FileFunction,Copper,L2,Bot*
G04 #@! TF.FilePolarity,Positive*
%FSLAX46Y46*%
G04 Gerber Fmt 4.6, Leading zero omitted, Abs format (unit mm)*
G04 Created by KiCad (PCBNEW 10.0.3) date 2026-07-05 12:05:54*
%MOMM*%
%LPD*%
G01*
G04 APERTURE LIST*
G04 Aperture macros list*
%AMRoundRect*
0 Rectangle with rounded corners*
0 $1 Rounding radius*
0 $2 $3 $4 $5 $6 $7 $8 $9 X,Y pos of 4 corners*
0 Add a 4 corners polygon primitive as box body*
4,1,4,$2,$3,$4,$5,$6,$7,$8,$9,$2,$3,0*
0 Add four circle primitives for the rounded corners*
1,1,$1+$1,$2,$3*
1,1,$1+$1,$4,$5*
1,1,$1+$1,$6,$7*
1,1,$1+$1,$8,$9*
0 Add four rect primitives between the rounded corners*
20,1,$1+$1,$2,$3,$4,$5,0*
20,1,$1+$1,$4,$5,$6,$7,0*
20,1,$1+$1,$6,$7,$8,$9,0*
20,1,$1+$1,$8,$9,$2,$3,0*%
G04 Aperture macros list end*
G04 #@! TA.AperFunction,ComponentPad*
%ADD10RoundRect,0.200000X-0.200000X-0.450000X0.200000X-0.450000X0.200000X0.450000X-0.200000X0.450000X0*%
G04 #@! TD*
G04 #@! TA.AperFunction,ComponentPad*
%ADD11O,0.800000X1.300000*%
G04 #@! TD*
G04 #@! TA.AperFunction,ComponentPad*
%ADD12C,0.700000*%
G04 #@! TD*
G04 #@! TA.AperFunction,ComponentPad*
%ADD13C,4.400000*%
G04 #@! TD*
G04 #@! TA.AperFunction,ComponentPad*
%ADD14RoundRect,0.250000X0.550000X-0.550000X0.550000X0.550000X-0.550000X0.550000X-0.550000X-0.550000X0*%
G04 #@! TD*
G04 #@! TA.AperFunction,ComponentPad*
%ADD15C,1.600000*%
G04 #@! TD*
G04 #@! TA.AperFunction,ComponentPad*
%ADD16C,2.000000*%
G04 #@! TD*
G04 #@! TA.AperFunction,ComponentPad*
%ADD17R,1.500000X1.050000*%
G04 #@! TD*
G04 #@! TA.AperFunction,ComponentPad*
%ADD18O,1.500000X1.050000*%
G04 #@! TD*
G04 #@! TA.AperFunction,ComponentPad*
%ADD19RoundRect,0.200000X0.450000X-0.200000X0.450000X0.200000X-0.450000X0.200000X-0.450000X-0.200000X0*%
G04 #@! TD*
G04 #@! TA.AperFunction,ComponentPad*
%ADD20O,1.300000X0.800000*%
G04 #@! TD*
G04 #@! TA.AperFunction,ViaPad*
%ADD21C,0.600000*%
G04 #@! TD*
G04 #@! TA.AperFunction,Conductor*
%ADD22C,0.500000*%
G04 #@! TD*
G04 APERTURE END LIST*
D10*
X209000000Y-100000000D03*
D11*
X210250000Y-100000000D03*
D12*
X220350000Y-76000000D03*
X220833274Y-74833274D03*
X220833274Y-77166726D03*
X222000000Y-74350000D03*
D13*
X222000000Y-76000000D03*
D12*
X222000000Y-77650000D03*
X223166726Y-74833274D03*
X223166726Y-77166726D03*
X223650000Y-76000000D03*
D14*
X213000000Y-89682380D03*
D15*
X213000000Y-87182380D03*
D16*
X169995000Y-82405000D03*
X169995000Y-96405000D03*
X192995000Y-82405000D03*
X192995000Y-84945000D03*
X192995000Y-93865000D03*
X192995000Y-96405000D03*
D17*
X202640000Y-86960000D03*
D18*
X202640000Y-88230000D03*
X202640000Y-89500000D03*
D15*
X221500000Y-86500000D03*
X221500000Y-91500000D03*
D12*
X220350000Y-100500000D03*
X220833274Y-99333274D03*
X220833274Y-101666726D03*
X222000000Y-98850000D03*
D13*
X222000000Y-100500000D03*
D12*
X222000000Y-102150000D03*
X223166726Y-99333274D03*
X223166726Y-101666726D03*
X223650000Y-100500000D03*
X158200000Y-76000000D03*
X158683274Y-74833274D03*
X158683274Y-77166726D03*
X159850000Y-74350000D03*
D13*
X159850000Y-76000000D03*
D12*
X159850000Y-77650000D03*
X161016726Y-74833274D03*
X161016726Y-77166726D03*
X161500000Y-76000000D03*
D10*
X199375000Y-76455000D03*
D11*
X200625000Y-76455000D03*
D19*
X161500000Y-89500000D03*
D20*
X161500000Y-88250000D03*
D12*
X158350000Y-100500000D03*
X158833274Y-99333274D03*
X158833274Y-101666726D03*
X160000000Y-98850000D03*
D13*
X160000000Y-100500000D03*
D12*
X160000000Y-102150000D03*
X161166726Y-99333274D03*
X161166726Y-101666726D03*
X161650000Y-100500000D03*
D10*
X199500000Y-99955000D03*
D11*
X200750000Y-99955000D03*
D21*
X196500000Y-83500000D03*
X198000000Y-83500000D03*
D22*
X196500000Y-83500000D02*
X196500000Y-79330000D01*
X196500000Y-79330000D02*
X199375000Y-76455000D01*
X198000000Y-83500000D02*
X198000000Y-79500000D01*
X198000000Y-79500000D02*
X200625000Y-76875000D01*
X200625000Y-76875000D02*
X200625000Y-76455000D01*
G04 #@! TA.AperFunction,Conductor*
G36*
X225442539Y-72520184D02*
G01*
X225488294Y-72572988D01*
X225499500Y-72624499D01*
X225499500Y-103875500D01*
X225479815Y-103942539D01*
X225427011Y-103988294D01*
X225375500Y-103999500D01*
X156624500Y-103999500D01*
X156557461Y-103979815D01*
X156511706Y-103927011D01*
X156500500Y-103875500D01*
X156500500Y-100348336D01*
X157299500Y-100348336D01*
X157299500Y-100651663D01*
X157333457Y-100953048D01*
X157333459Y-100953060D01*
X157333460Y-100953063D01*
X157344760Y-101002571D01*
X157400953Y-101248771D01*
X157400957Y-101248783D01*
X157501133Y-101535068D01*
X157632733Y-101808338D01*
X157632735Y-101808341D01*
X157794108Y-102065164D01*
X157983221Y-102302304D01*
X158197696Y-102516779D01*
X158434836Y-102705892D01*
X158691659Y-102867265D01*
X158964935Y-102998868D01*
X159179951Y-103074105D01*
X159251216Y-103099042D01*
X159251228Y-103099046D01*
X159546937Y-103166540D01*
X159546946Y-103166541D01*
X159546951Y-103166542D01*
X159747874Y-103189180D01*
X159848337Y-103200499D01*
X159848340Y-103200500D01*
X159848343Y-103200500D01*
X160151660Y-103200500D01*
X160151661Y-103200499D01*
X160305694Y-103183144D01*
X160453048Y-103166542D01*
X160453051Y-103166541D01*
X160453063Y-103166540D01*
X160748772Y-103099046D01*
X161035065Y-102998868D01*
X161308341Y-102867265D01*
X161565164Y-102705892D01*
X161802304Y-102516779D01*
X162016779Y-102302304D01*
X162205892Y-102065164D01*
X162367265Y-101808341D01*
X162498868Y-101535065D01*
X162599046Y-101248772D01*
X162666540Y-100953063D01*
X162666990Y-100949076D01*
X162686184Y-100778716D01*
X162700500Y-100651657D01*
X162700500Y-100348343D01*
X162680061Y-100166940D01*
X162666542Y-100046951D01*
X162666541Y-100046946D01*
X162666540Y-100046937D01*
X162599046Y-99751228D01*
X162598616Y-99750000D01*
X162506424Y-99486529D01*
X162498868Y-99464935D01*
X162490898Y-99448386D01*
X198599500Y-99448386D01*
X198599500Y-100461613D01*
X198605913Y-100532192D01*
X198605913Y-100532194D01*
X198605914Y-100532196D01*
X198643141Y-100651663D01*
X198656522Y-100694606D01*
X198744530Y-100840188D01*
X198864811Y-100960469D01*
X198864813Y-100960470D01*
X198864815Y-100960472D01*
X199010394Y-101048478D01*
X199172804Y-101099086D01*
X199243384Y-101105500D01*
X199243387Y-101105500D01*
X199756613Y-101105500D01*
X199756616Y-101105500D01*
X199827196Y-101099086D01*
X199989606Y-101048478D01*
X200133597Y-100961431D01*
X200201148Y-100943596D01*
X200266636Y-100964447D01*
X200323689Y-101002569D01*
X200323693Y-101002571D01*
X200487476Y-101070412D01*
X200487483Y-101070415D01*
X200500000Y-101072904D01*
X200500000Y-101072903D01*
X201000000Y-101072903D01*
X201012516Y-101070415D01*
X201012523Y-101070412D01*
X201176306Y-101002571D01*
X201176316Y-101002566D01*
X201323716Y-100904076D01*
X201323720Y-100904073D01*
X201449073Y-100778720D01*
X201449076Y-100778716D01*
X201547566Y-100631316D01*
X201547571Y-100631307D01*
X201615413Y-100467520D01*
X201615415Y-100467512D01*
X201649999Y-100293646D01*
X201650000Y-100293643D01*
X201650000Y-100205000D01*
X201000000Y-100205000D01*
X201000000Y-101072903D01*
X200500000Y-101072903D01*
X200500000Y-100004728D01*
X200538060Y-100096614D01*
X200608386Y-100166940D01*
X200700272Y-100205000D01*
X200799728Y-100205000D01*
X200891614Y-100166940D01*
X200961940Y-100096614D01*
X201000000Y-100004728D01*
X201000000Y-99905272D01*
X200961940Y-99813386D01*
X200891614Y-99743060D01*
X200799728Y-99705000D01*
X201000000Y-99705000D01*
X201650000Y-99705000D01*
X201650000Y-99616360D01*
X201629792Y-99514765D01*
X201629792Y-99514761D01*
X201625540Y-99493386D01*
X208099500Y-99493386D01*
X208099500Y-100506613D01*
X208105913Y-100577192D01*
X208105913Y-100577194D01*
X208105914Y-100577196D01*
X208156522Y-100739606D01*
X208217324Y-100840185D01*
X208244530Y-100885188D01*
X208364811Y-101005469D01*
X208364813Y-101005470D01*
X208364815Y-101005472D01*
X208510394Y-101093478D01*
X208672804Y-101144086D01*
X208743384Y-101150500D01*
X208743387Y-101150500D01*
X209256613Y-101150500D01*
X209256616Y-101150500D01*
X209327196Y-101144086D01*
X209489606Y-101093478D01*
X209633597Y-101006431D01*
X209701148Y-100988596D01*
X209766636Y-101009447D01*
X209823689Y-101047569D01*
X209823693Y-101047571D01*
X209987476Y-101115412D01*
X209987483Y-101115415D01*
X210000000Y-101117904D01*
X210000000Y-101117903D01*
X210500000Y-101117903D01*
X210512516Y-101115415D01*
X210512523Y-101115412D01*
X210676306Y-101047571D01*
X210676316Y-101047566D01*
X210823716Y-100949076D01*
X210823720Y-100949073D01*
X210949073Y-100823720D01*
X210949076Y-100823716D01*
X211047566Y-100676316D01*
X211047571Y-100676307D01*
X211115413Y-100512520D01*
X211115415Y-100512512D01*
X211148071Y-100348336D01*
X219299500Y-100348336D01*
X219299500Y-100651663D01*
X219333457Y-100953048D01*
X219333459Y-100953060D01*
X219333460Y-100953063D01*
X219344760Y-101002571D01*
X219400953Y-101248771D01*
X219400957Y-101248783D01*
X219501133Y-101535068D01*
X219632733Y-101808338D01*
X219632735Y-101808341D01*
X219794108Y-102065164D01*
X219983221Y-102302304D01*
X220197696Y-102516779D01*
X220434836Y-102705892D01*
X220691659Y-102867265D01*
X220964935Y-102998868D01*
X221179951Y-103074105D01*
X221251216Y-103099042D01*
X221251228Y-103099046D01*
X221546937Y-103166540D01*
X221546946Y-103166541D01*
X221546951Y-103166542D01*
X221747874Y-103189180D01*
X221848337Y-103200499D01*
X221848340Y-103200500D01*
X221848343Y-103200500D01*
X222151660Y-103200500D01*
X222151661Y-103200499D01*
X222305694Y-103183144D01*
X222453048Y-103166542D01*
X222453051Y-103166541D01*
X222453063Y-103166540D01*
X222748772Y-103099046D01*
X223035065Y-102998868D01*
X223308341Y-102867265D01*
X223565164Y-102705892D01*
X223802304Y-102516779D01*
X224016779Y-102302304D01*
X224205892Y-102065164D01*
X224367265Y-101808341D01*
X224498868Y-101535065D01*
X224599046Y-101248772D01*
X224666540Y-100953063D01*
X224666990Y-100949076D01*
X224686184Y-100778716D01*
X224700500Y-100651657D01*
X224700500Y-100348343D01*
X224680061Y-100166940D01*
X224666542Y-100046951D01*
X224666541Y-100046946D01*
X224666540Y-100046937D01*
X224599046Y-99751228D01*
X224598616Y-99750000D01*
X224516304Y-99514765D01*
X224498868Y-99464935D01*
X224367265Y-99191659D01*
X224205892Y-98934836D01*
X224016779Y-98697696D01*
X223802304Y-98483221D01*
X223565164Y-98294108D01*
X223308341Y-98132735D01*
X223308338Y-98132733D01*
X223035068Y-98001133D01*
X222748783Y-97900957D01*
X222748771Y-97900953D01*
X222520556Y-97848864D01*
X222453063Y-97833460D01*
X222453060Y-97833459D01*
X222453048Y-97833457D01*
X222151663Y-97799500D01*
X222151657Y-97799500D01*
X221848343Y-97799500D01*
X221848336Y-97799500D01*
X221546951Y-97833457D01*
X221546937Y-97833460D01*
X221251228Y-97900953D01*
X221251216Y-97900957D01*
X220964931Y-98001133D01*
X220691661Y-98132733D01*
X220434837Y-98294107D01*
X220197696Y-98483220D01*
X219983220Y-98697696D01*
X219794107Y-98934837D01*
X219632733Y-99191661D01*
X219501133Y-99464931D01*
X219400957Y-99751216D01*
X219400953Y-99751228D01*
X219333460Y-100046937D01*
X219333457Y-100046951D01*
X219299500Y-100348336D01*
X211148071Y-100348336D01*
X211149999Y-100338645D01*
X211150000Y-100338643D01*
X211150000Y-100250000D01*
X210500000Y-100250000D01*
X210500000Y-101117903D01*
X210000000Y-101117903D01*
X210000000Y-100049728D01*
X210038060Y-100141614D01*
X210108386Y-100211940D01*
X210200272Y-100250000D01*
X210299728Y-100250000D01*
X210391614Y-100211940D01*
X210461940Y-100141614D01*
X210500000Y-100049728D01*
X210500000Y-99950272D01*
X210461940Y-99858386D01*
X210391614Y-99788060D01*
X210299728Y-99750000D01*
X210500000Y-99750000D01*
X211150000Y-99750000D01*
X211150000Y-99661357D01*
X211149999Y-99661353D01*
X211115415Y-99487487D01*
X211115413Y-99487479D01*
X211047571Y-99323692D01*
X211047566Y-99323683D01*
X210949076Y-99176283D01*
X210949073Y-99176279D01*
X210823720Y-99050926D01*
X210823716Y-99050923D01*
X210676316Y-98952433D01*
X210676307Y-98952428D01*
X210512519Y-98884585D01*
X210500000Y-98882094D01*
X210500000Y-99750000D01*
X210299728Y-99750000D01*
X210200272Y-99750000D01*
X210108386Y-99788060D01*
X210038060Y-99858386D01*
X210000000Y-99950272D01*
X210000000Y-98882095D01*
X209999999Y-98882094D01*
X209987480Y-98884585D01*
X209823691Y-98952429D01*
X209766634Y-98990553D01*
X209699956Y-99011430D01*
X209633596Y-98993567D01*
X209489606Y-98906522D01*
X209327196Y-98855914D01*
X209327194Y-98855913D01*
X209327192Y-98855913D01*
X209277778Y-98851423D01*
X209256616Y-98849500D01*
X208743384Y-98849500D01*
X208724145Y-98851248D01*
X208672807Y-98855913D01*
X208510393Y-98906522D01*
X208364811Y-98994530D01*
X208244530Y-99114811D01*
X208156522Y-99260393D01*
X208105913Y-99422807D01*
X208099500Y-99493386D01*
X201625540Y-99493386D01*
X201615415Y-99442487D01*
X201615413Y-99442479D01*
X201547571Y-99278692D01*
X201547566Y-99278683D01*
X201449076Y-99131283D01*
X201449073Y-99131279D01*
X201323720Y-99005926D01*
X201323716Y-99005923D01*
X201176316Y-98907433D01*
X201176307Y-98907428D01*
X201012519Y-98839585D01*
X201000000Y-98837094D01*
X201000000Y-99705000D01*
X200799728Y-99705000D01*
X200700272Y-99705000D01*
X200608386Y-99743060D01*
X200538060Y-99813386D01*
X200500000Y-99905272D01*
X200500000Y-98837095D01*
X200499999Y-98837094D01*
X200487480Y-98839585D01*
X200323691Y-98907429D01*
X200266634Y-98945553D01*
X200199956Y-98966430D01*
X200133596Y-98948567D01*
X199989606Y-98861522D01*
X199827196Y-98810914D01*
X199827194Y-98810913D01*
X199827192Y-98810913D01*
X199777778Y-98806423D01*
X199756616Y-98804500D01*
X199243384Y-98804500D01*
X199224145Y-98806248D01*
X199172807Y-98810913D01*
X199010393Y-98861522D01*
X198864811Y-98949530D01*
X198744530Y-99069811D01*
X198656522Y-99215393D01*
X198605913Y-99377807D01*
X198599500Y-99448386D01*
X162490898Y-99448386D01*
X162367265Y-99191659D01*
X162205892Y-98934836D01*
X162016779Y-98697696D01*
X161802304Y-98483221D01*
X161565164Y-98294108D01*
X161308341Y-98132735D01*
X161308338Y-98132733D01*
X161035068Y-98001133D01*
X160748783Y-97900957D01*
X160748771Y-97900953D01*
X160520556Y-97848864D01*
X160453063Y-97833460D01*
X160453060Y-97833459D01*
X160453048Y-97833457D01*
X160151663Y-97799500D01*
X160151657Y-97799500D01*
X159848343Y-97799500D01*
X159848336Y-97799500D01*
X159546951Y-97833457D01*
X159546937Y-97833460D01*
X159251228Y-97900953D01*
X159251216Y-97900957D01*
X158964931Y-98001133D01*
X158691661Y-98132733D01*
X158434837Y-98294107D01*
X158197696Y-98483220D01*
X157983220Y-98697696D01*
X157794107Y-98934837D01*
X157632733Y-99191661D01*
X157501133Y-99464931D01*
X157400957Y-99751216D01*
X157400953Y-99751228D01*
X157333460Y-100046937D01*
X157333457Y-100046951D01*
X157299500Y-100348336D01*
X156500500Y-100348336D01*
X156500500Y-96286902D01*
X168494500Y-96286902D01*
X168494500Y-96523097D01*
X168531446Y-96756368D01*
X168604433Y-96980996D01*
X168711519Y-97191163D01*
X168711657Y-97191433D01*
X168850483Y-97382510D01*
X169017490Y-97549517D01*
X169208567Y-97688343D01*
X169307991Y-97739002D01*
X169419003Y-97795566D01*
X169419005Y-97795566D01*
X169419008Y-97795568D01*
X169535618Y-97833457D01*
X169643631Y-97868553D01*
X169876903Y-97905500D01*
X169876908Y-97905500D01*
X170113097Y-97905500D01*
X170346368Y-97868553D01*
X170347870Y-97868065D01*
X170570992Y-97795568D01*
X170781433Y-97688343D01*
X170972510Y-97549517D01*
X171139517Y-97382510D01*
X171278343Y-97191433D01*
X171385568Y-96980992D01*
X171458553Y-96756368D01*
X171483637Y-96597993D01*
X171495500Y-96523097D01*
X171495500Y-96286902D01*
X171458553Y-96053631D01*
X171385566Y-95829003D01*
X171278477Y-95618830D01*
X171278343Y-95618567D01*
X171139517Y-95427490D01*
X170972510Y-95260483D01*
X170781433Y-95121657D01*
X170570996Y-95014433D01*
X170346368Y-94941446D01*
X170113097Y-94904500D01*
X170113092Y-94904500D01*
X169876908Y-94904500D01*
X169876903Y-94904500D01*
X169643631Y-94941446D01*
X169419003Y-95014433D01*
X169208566Y-95121657D01*
X169152222Y-95162594D01*
X169017490Y-95260483D01*
X169017488Y-95260485D01*
X169017487Y-95260485D01*
X168850485Y-95427487D01*
X168850485Y-95427488D01*
X168850483Y-95427490D01*
X168790862Y-95509550D01*
X168711657Y-95618566D01*
X168604433Y-95829003D01*
X168531446Y-96053631D01*
X168494500Y-96286902D01*
X156500500Y-96286902D01*
X156500500Y-93746902D01*
X191494500Y-93746902D01*
X191494500Y-93983097D01*
X191531446Y-94216368D01*
X191604433Y-94440996D01*
X191711657Y-94651433D01*
X191850483Y-94842510D01*
X192017490Y-95009517D01*
X192076716Y-95052547D01*
X192119381Y-95107875D01*
X192127448Y-95162593D01*
X192125893Y-95182340D01*
X192865591Y-95922037D01*
X192802007Y-95939075D01*
X192687993Y-96004901D01*
X192594901Y-96097993D01*
X192529075Y-96212007D01*
X192512037Y-96275591D01*
X191772340Y-95535894D01*
X191712084Y-95618830D01*
X191604897Y-95829197D01*
X191531934Y-96053752D01*
X191495000Y-96286947D01*
X191495000Y-96523052D01*
X191531934Y-96756247D01*
X191604897Y-96980802D01*
X191712087Y-97191174D01*
X191772338Y-97274104D01*
X191772340Y-97274105D01*
X192512037Y-96534408D01*
X192529075Y-96597993D01*
X192594901Y-96712007D01*
X192687993Y-96805099D01*
X192802007Y-96870925D01*
X192865590Y-96887962D01*
X192125893Y-97627658D01*
X192208828Y-97687914D01*
X192419197Y-97795102D01*
X192643752Y-97868065D01*
X192643751Y-97868065D01*
X192876948Y-97905000D01*
X193113052Y-97905000D01*
X193346247Y-97868065D01*
X193570802Y-97795102D01*
X193781163Y-97687918D01*
X193781169Y-97687914D01*
X193864104Y-97627658D01*
X193864105Y-97627658D01*
X193124408Y-96887962D01*
X193187993Y-96870925D01*
X193302007Y-96805099D01*
X193395099Y-96712007D01*
X193460925Y-96597993D01*
X193477962Y-96534409D01*
X194217658Y-97274105D01*
X194217658Y-97274104D01*
X194277914Y-97191169D01*
X194277918Y-97191163D01*
X194385102Y-96980802D01*
X194458065Y-96756247D01*
X194495000Y-96523052D01*
X194495000Y-96286947D01*
X194458065Y-96053752D01*
X194385102Y-95829197D01*
X194277914Y-95618828D01*
X194217658Y-95535894D01*
X194217658Y-95535893D01*
X193477962Y-96275590D01*
X193460925Y-96212007D01*
X193395099Y-96097993D01*
X193302007Y-96004901D01*
X193187993Y-95939075D01*
X193124409Y-95922037D01*
X193864105Y-95182340D01*
X193862551Y-95162594D01*
X193876915Y-95094216D01*
X193913284Y-95052547D01*
X193972510Y-95009517D01*
X194139517Y-94842510D01*
X194278343Y-94651433D01*
X194385568Y-94440992D01*
X194458553Y-94216368D01*
X194495500Y-93983097D01*
X194495500Y-93746902D01*
X194458553Y-93513631D01*
X194385566Y-93289003D01*
X194278342Y-93078566D01*
X194139517Y-92887490D01*
X193972510Y-92720483D01*
X193781433Y-92581657D01*
X193570996Y-92474433D01*
X193346368Y-92401446D01*
X193113097Y-92364500D01*
X193113092Y-92364500D01*
X192876908Y-92364500D01*
X192876903Y-92364500D01*
X192643631Y-92401446D01*
X192419003Y-92474433D01*
X192208566Y-92581657D01*
X192099550Y-92660862D01*
X192017490Y-92720483D01*
X192017488Y-92720485D01*
X192017487Y-92720485D01*
X191850485Y-92887487D01*
X191850485Y-92887488D01*
X191850483Y-92887490D01*
X191790862Y-92969550D01*
X191711657Y-93078566D01*
X191604433Y-93289003D01*
X191531446Y-93513631D01*
X191494500Y-93746902D01*
X156500500Y-93746902D01*
X156500500Y-91397648D01*
X220199500Y-91397648D01*
X220199500Y-91602351D01*
X220231522Y-91804534D01*
X220294781Y-91999223D01*
X220387715Y-92181613D01*
X220508028Y-92347213D01*
X220652786Y-92491971D01*
X220776231Y-92581657D01*
X220818390Y-92612287D01*
X220934607Y-92671503D01*
X221000776Y-92705218D01*
X221000778Y-92705218D01*
X221000781Y-92705220D01*
X221047756Y-92720483D01*
X221195465Y-92768477D01*
X221296557Y-92784488D01*
X221397648Y-92800500D01*
X221397649Y-92800500D01*
X221602351Y-92800500D01*
X221602352Y-92800500D01*
X221804534Y-92768477D01*
X221999219Y-92705220D01*
X222181610Y-92612287D01*
X222274590Y-92544732D01*
X222347213Y-92491971D01*
X222347215Y-92491968D01*
X222347219Y-92491966D01*
X222491966Y-92347219D01*
X222491968Y-92347215D01*
X222491971Y-92347213D01*
X222544732Y-92274590D01*
X222612287Y-92181610D01*
X222705220Y-91999219D01*
X222768477Y-91804534D01*
X222800500Y-91602352D01*
X222800500Y-91397648D01*
X222768477Y-91195466D01*
X222705220Y-91000781D01*
X222705218Y-91000778D01*
X222705218Y-91000776D01*
X222662629Y-90917192D01*
X222612287Y-90818390D01*
X222604556Y-90807749D01*
X222491971Y-90652786D01*
X222347213Y-90508028D01*
X222181613Y-90387715D01*
X222181612Y-90387714D01*
X222181610Y-90387713D01*
X222124653Y-90358691D01*
X221999223Y-90294781D01*
X221804534Y-90231522D01*
X221629995Y-90203878D01*
X221602352Y-90199500D01*
X221397648Y-90199500D01*
X221373329Y-90203351D01*
X221195465Y-90231522D01*
X221000776Y-90294781D01*
X220818386Y-90387715D01*
X220652786Y-90508028D01*
X220508028Y-90652786D01*
X220387715Y-90818386D01*
X220294781Y-91000776D01*
X220231522Y-91195465D01*
X220199500Y-91397648D01*
X156500500Y-91397648D01*
X156500500Y-88161304D01*
X160349500Y-88161304D01*
X160349500Y-88338695D01*
X160384103Y-88512658D01*
X160384106Y-88512667D01*
X160451983Y-88676540D01*
X160451991Y-88676555D01*
X160490265Y-88733834D01*
X160511144Y-88800511D01*
X160493281Y-88866875D01*
X160406523Y-89010391D01*
X160355913Y-89172807D01*
X160349500Y-89243386D01*
X160349500Y-89756613D01*
X160355913Y-89827192D01*
X160406522Y-89989606D01*
X160494530Y-90135188D01*
X160614811Y-90255469D01*
X160614813Y-90255470D01*
X160614815Y-90255472D01*
X160760394Y-90343478D01*
X160922804Y-90394086D01*
X160993384Y-90400500D01*
X160993387Y-90400500D01*
X162006613Y-90400500D01*
X162006616Y-90400500D01*
X162077196Y-90394086D01*
X162239606Y-90343478D01*
X162385185Y-90255472D01*
X162505472Y-90135185D01*
X162593478Y-89989606D01*
X162644086Y-89827196D01*
X162650500Y-89756616D01*
X162650500Y-89243384D01*
X162644086Y-89172804D01*
X162593478Y-89010394D01*
X162506716Y-88866873D01*
X162488881Y-88799322D01*
X162509731Y-88733839D01*
X162548013Y-88676547D01*
X162615894Y-88512666D01*
X162650500Y-88338691D01*
X162650500Y-88161309D01*
X162650499Y-88161304D01*
X162647673Y-88147094D01*
X162647673Y-88147092D01*
X162644073Y-88128992D01*
X201389500Y-88128992D01*
X201389500Y-88331007D01*
X201428907Y-88529119D01*
X201428909Y-88529127D01*
X201506213Y-88715755D01*
X201559904Y-88796109D01*
X201580782Y-88862787D01*
X201562297Y-88930167D01*
X201559904Y-88933891D01*
X201506213Y-89014244D01*
X201428909Y-89200872D01*
X201428907Y-89200880D01*
X201389500Y-89398992D01*
X201389500Y-89601007D01*
X201428907Y-89799119D01*
X201428909Y-89799127D01*
X201506212Y-89985752D01*
X201506217Y-89985762D01*
X201618441Y-90153718D01*
X201761281Y-90296558D01*
X201929237Y-90408782D01*
X201929241Y-90408784D01*
X201929244Y-90408786D01*
X202115873Y-90486091D01*
X202313992Y-90525499D01*
X202313996Y-90525500D01*
X202313997Y-90525500D01*
X202966004Y-90525500D01*
X202966005Y-90525499D01*
X203164127Y-90486091D01*
X203350756Y-90408786D01*
X203518718Y-90296558D01*
X203661558Y-90153718D01*
X203773786Y-89985756D01*
X203851091Y-89799127D01*
X203890500Y-89601003D01*
X203890500Y-89398997D01*
X203851091Y-89200873D01*
X203839466Y-89172807D01*
X203822445Y-89131715D01*
X203822442Y-89131710D01*
X203802002Y-89082363D01*
X211699500Y-89082363D01*
X211699500Y-90282381D01*
X211699501Y-90282398D01*
X211710000Y-90385176D01*
X211710001Y-90385179D01*
X211765185Y-90551711D01*
X211765186Y-90551714D01*
X211857288Y-90701036D01*
X211981344Y-90825092D01*
X212130666Y-90917194D01*
X212297203Y-90972379D01*
X212399991Y-90982880D01*
X213600008Y-90982879D01*
X213702797Y-90972379D01*
X213869334Y-90917194D01*
X214018656Y-90825092D01*
X214142712Y-90701036D01*
X214234814Y-90551714D01*
X214289999Y-90385177D01*
X214300500Y-90282389D01*
X214300499Y-89082372D01*
X214289999Y-88979583D01*
X214234814Y-88813046D01*
X214142712Y-88663724D01*
X214018656Y-88539668D01*
X213869334Y-88447566D01*
X213807558Y-88427095D01*
X213750115Y-88387323D01*
X213723292Y-88322807D01*
X213722946Y-88299660D01*
X213725921Y-88261853D01*
X213046447Y-87582380D01*
X213052661Y-87582380D01*
X213154394Y-87555121D01*
X213245606Y-87502460D01*
X213320080Y-87427986D01*
X213372741Y-87336774D01*
X213400000Y-87235041D01*
X213400000Y-87228828D01*
X214079474Y-87908302D01*
X214079474Y-87908301D01*
X214111859Y-87863729D01*
X214204755Y-87681411D01*
X214265684Y-87493896D01*
X214267989Y-87486798D01*
X214300000Y-87284697D01*
X214300000Y-87080062D01*
X214267990Y-86877962D01*
X214204755Y-86683348D01*
X214111857Y-86501027D01*
X214086194Y-86465704D01*
X214086192Y-86465702D01*
X214079475Y-86456457D01*
X214079474Y-86456456D01*
X213400000Y-87135931D01*
X213400000Y-87129719D01*
X213372741Y-87027986D01*
X213320080Y-86936774D01*
X213245606Y-86862300D01*
X213154394Y-86809639D01*
X213052661Y-86782380D01*
X213046446Y-86782380D01*
X213431144Y-86397682D01*
X220200000Y-86397682D01*
X220200000Y-86602317D01*
X220232009Y-86804417D01*
X220295244Y-86999031D01*
X220388141Y-87181350D01*
X220388147Y-87181359D01*
X220420523Y-87225921D01*
X220420524Y-87225922D01*
X221100000Y-86546446D01*
X221100000Y-86552661D01*
X221127259Y-86654394D01*
X221179920Y-86745606D01*
X221254394Y-86820080D01*
X221345606Y-86872741D01*
X221447339Y-86900000D01*
X221453553Y-86900000D01*
X220774076Y-87579474D01*
X220818650Y-87611859D01*
X221000968Y-87704755D01*
X221195582Y-87767990D01*
X221397683Y-87800000D01*
X221602317Y-87800000D01*
X221804417Y-87767990D01*
X221999031Y-87704755D01*
X222181349Y-87611859D01*
X222225921Y-87579474D01*
X221546447Y-86900000D01*
X221552661Y-86900000D01*
X221654394Y-86872741D01*
X221745606Y-86820080D01*
X221820080Y-86745606D01*
X221872741Y-86654394D01*
X221900000Y-86552661D01*
X221900000Y-86546448D01*
X222579474Y-87225922D01*
X222579474Y-87225921D01*
X222611859Y-87181349D01*
X222704755Y-86999031D01*
X222767990Y-86804417D01*
X222800000Y-86602317D01*
X222800000Y-86397682D01*
X222767990Y-86195582D01*
X222704755Y-86000968D01*
X222611859Y-85818650D01*
X222579474Y-85774077D01*
X222579474Y-85774076D01*
X221900000Y-86453551D01*
X221900000Y-86447339D01*
X221872741Y-86345606D01*
X221820080Y-86254394D01*
X221745606Y-86179920D01*
X221654394Y-86127259D01*
X221552661Y-86100000D01*
X221546446Y-86100000D01*
X222225922Y-85420524D01*
X222225921Y-85420523D01*
X222181359Y-85388147D01*
X222181350Y-85388141D01*
X221999031Y-85295244D01*
X221804417Y-85232009D01*
X221602317Y-85200000D01*
X221397683Y-85200000D01*
X221195582Y-85232009D01*
X221000968Y-85295244D01*
X220818644Y-85388143D01*
X220774077Y-85420523D01*
X220774077Y-85420524D01*
X221453554Y-86100000D01*
X221447339Y-86100000D01*
X221345606Y-86127259D01*
X221254394Y-86179920D01*
X221179920Y-86254394D01*
X221127259Y-86345606D01*
X221100000Y-86447339D01*
X221100000Y-86453553D01*
X220420524Y-85774077D01*
X220420523Y-85774077D01*
X220388143Y-85818644D01*
X220295244Y-86000968D01*
X220232009Y-86195582D01*
X220200000Y-86397682D01*
X213431144Y-86397682D01*
X213725922Y-86102904D01*
X213725921Y-86102903D01*
X213681359Y-86070527D01*
X213681350Y-86070521D01*
X213499031Y-85977624D01*
X213304417Y-85914389D01*
X213102317Y-85882380D01*
X212897683Y-85882380D01*
X212695582Y-85914389D01*
X212500968Y-85977624D01*
X212318644Y-86070523D01*
X212274077Y-86102903D01*
X212274077Y-86102904D01*
X212953554Y-86782380D01*
X212947339Y-86782380D01*
X212845606Y-86809639D01*
X212754394Y-86862300D01*
X212679920Y-86936774D01*
X212627259Y-87027986D01*
X212600000Y-87129719D01*
X212600000Y-87135933D01*
X211920524Y-86456457D01*
X211920523Y-86456457D01*
X211888143Y-86501024D01*
X211795244Y-86683348D01*
X211732009Y-86877962D01*
X211700000Y-87080062D01*
X211700000Y-87284697D01*
X211732009Y-87486797D01*
X211795244Y-87681411D01*
X211888141Y-87863730D01*
X211888147Y-87863739D01*
X211920523Y-87908301D01*
X211920524Y-87908302D01*
X212600000Y-87228826D01*
X212600000Y-87235041D01*
X212627259Y-87336774D01*
X212679920Y-87427986D01*
X212754394Y-87502460D01*
X212845606Y-87555121D01*
X212947339Y-87582380D01*
X212953553Y-87582380D01*
X212274076Y-88261854D01*
X212277052Y-88299662D01*
X212262687Y-88368039D01*
X212213636Y-88417795D01*
X212192440Y-88427095D01*
X212130672Y-88447564D01*
X212130663Y-88447567D01*
X211981342Y-88539669D01*
X211857289Y-88663722D01*
X211765187Y-88813043D01*
X211765185Y-88813048D01*
X211760462Y-88827302D01*
X211710001Y-88979583D01*
X211710001Y-88979584D01*
X211710000Y-88979584D01*
X211699500Y-89082363D01*
X203802002Y-89082363D01*
X203773786Y-89014244D01*
X203716357Y-88928296D01*
X203713251Y-88922340D01*
X203707727Y-88894395D01*
X203699217Y-88867214D01*
X203701041Y-88860563D01*
X203699704Y-88853796D01*
X203710165Y-88827302D01*
X203717701Y-88799834D01*
X203720078Y-88796134D01*
X203773786Y-88715756D01*
X203851091Y-88529127D01*
X203890500Y-88331003D01*
X203890500Y-88128997D01*
X203851091Y-87930873D01*
X203817451Y-87849661D01*
X203809983Y-87780194D01*
X203829592Y-87735144D01*
X203829101Y-87734876D01*
X203832102Y-87729379D01*
X203832748Y-87727896D01*
X203833352Y-87727089D01*
X203883597Y-87592376D01*
X203883598Y-87592372D01*
X203889999Y-87532844D01*
X203890000Y-87532827D01*
X203890000Y-87210000D01*
X203005866Y-87210000D01*
X202981674Y-87207617D01*
X202966004Y-87204500D01*
X202966003Y-87204500D01*
X202925830Y-87204500D01*
X202940075Y-87190255D01*
X202989444Y-87104745D01*
X203015000Y-87009370D01*
X203015000Y-86910630D01*
X202989444Y-86815255D01*
X202940075Y-86729745D01*
X202920330Y-86710000D01*
X203890000Y-86710000D01*
X203890000Y-86387172D01*
X203889999Y-86387155D01*
X203883598Y-86327627D01*
X203883596Y-86327620D01*
X203833572Y-86193496D01*
X203833571Y-86193494D01*
X203833357Y-86192918D01*
X203833350Y-86192906D01*
X203747190Y-86077812D01*
X203747187Y-86077809D01*
X203632093Y-85991649D01*
X203632086Y-85991645D01*
X203497379Y-85941403D01*
X203497372Y-85941401D01*
X203437844Y-85935000D01*
X202890000Y-85935000D01*
X202890000Y-86679670D01*
X202870255Y-86659925D01*
X202784745Y-86610556D01*
X202689370Y-86585000D01*
X202590630Y-86585000D01*
X202495255Y-86610556D01*
X202409745Y-86659925D01*
X202390000Y-86679670D01*
X202390000Y-85935000D01*
X201842155Y-85935000D01*
X201782627Y-85941401D01*
X201782620Y-85941403D01*
X201647913Y-85991645D01*
X201647906Y-85991649D01*
X201532812Y-86077809D01*
X201532809Y-86077812D01*
X201446649Y-86192906D01*
X201446645Y-86192913D01*
X201396403Y-86327620D01*
X201396401Y-86327627D01*
X201390000Y-86387155D01*
X201390000Y-86710000D01*
X202359670Y-86710000D01*
X202339925Y-86729745D01*
X202290556Y-86815255D01*
X202265000Y-86910630D01*
X202265000Y-87009370D01*
X202290556Y-87104745D01*
X202339925Y-87190255D01*
X202354170Y-87204500D01*
X202313997Y-87204500D01*
X202313996Y-87204500D01*
X202298326Y-87207617D01*
X202274134Y-87210000D01*
X201390000Y-87210000D01*
X201390000Y-87532844D01*
X201396401Y-87592372D01*
X201396403Y-87592379D01*
X201446645Y-87727086D01*
X201447251Y-87727895D01*
X201447604Y-87728841D01*
X201450897Y-87734872D01*
X201450030Y-87735345D01*
X201471670Y-87793359D01*
X201462547Y-87849661D01*
X201428910Y-87930868D01*
X201428907Y-87930880D01*
X201389500Y-88128992D01*
X162644073Y-88128992D01*
X162615895Y-87987340D01*
X162615894Y-87987334D01*
X162564696Y-87863729D01*
X162548016Y-87823459D01*
X162548009Y-87823446D01*
X162449464Y-87675965D01*
X162449461Y-87675961D01*
X162324038Y-87550538D01*
X162324034Y-87550535D01*
X162176553Y-87451990D01*
X162176540Y-87451983D01*
X162012667Y-87384106D01*
X162012658Y-87384103D01*
X161838694Y-87349500D01*
X161838691Y-87349500D01*
X161161309Y-87349500D01*
X161161306Y-87349500D01*
X160987341Y-87384103D01*
X160987332Y-87384106D01*
X160823459Y-87451983D01*
X160823446Y-87451990D01*
X160675965Y-87550535D01*
X160675961Y-87550538D01*
X160550538Y-87675961D01*
X160550535Y-87675965D01*
X160451990Y-87823446D01*
X160451983Y-87823459D01*
X160384106Y-87987332D01*
X160384103Y-87987341D01*
X160349500Y-88161304D01*
X156500500Y-88161304D01*
X156500500Y-82286902D01*
X168494500Y-82286902D01*
X168494500Y-82523097D01*
X168531446Y-82756368D01*
X168604433Y-82980996D01*
X168711657Y-83191433D01*
X168850483Y-83382510D01*
X169017490Y-83549517D01*
X169208567Y-83688343D01*
X169270676Y-83719989D01*
X169419003Y-83795566D01*
X169419005Y-83795566D01*
X169419008Y-83795568D01*
X169539412Y-83834689D01*
X169643631Y-83868553D01*
X169876903Y-83905500D01*
X169876908Y-83905500D01*
X170113097Y-83905500D01*
X170346368Y-83868553D01*
X170570992Y-83795568D01*
X170781433Y-83688343D01*
X170972510Y-83549517D01*
X171139517Y-83382510D01*
X171278343Y-83191433D01*
X171385568Y-82980992D01*
X171458553Y-82756368D01*
X171495500Y-82523097D01*
X171495500Y-82286902D01*
X191494500Y-82286902D01*
X191494500Y-82523097D01*
X191531446Y-82756368D01*
X191604433Y-82980996D01*
X191711657Y-83191433D01*
X191850483Y-83382510D01*
X192017490Y-83549517D01*
X192052127Y-83574683D01*
X192094792Y-83630013D01*
X192100771Y-83699626D01*
X192068165Y-83761421D01*
X192052130Y-83775315D01*
X192044105Y-83781146D01*
X192017488Y-83800484D01*
X191850485Y-83967487D01*
X191850485Y-83967488D01*
X191850483Y-83967490D01*
X191790862Y-84049550D01*
X191711657Y-84158566D01*
X191604433Y-84369003D01*
X191531446Y-84593631D01*
X191494500Y-84826902D01*
X191494500Y-85063097D01*
X191531446Y-85296368D01*
X191604433Y-85520996D01*
X191711657Y-85731433D01*
X191850483Y-85922510D01*
X192017490Y-86089517D01*
X192208567Y-86228343D01*
X192259695Y-86254394D01*
X192419003Y-86335566D01*
X192419005Y-86335566D01*
X192419008Y-86335568D01*
X192539412Y-86374689D01*
X192643631Y-86408553D01*
X192876903Y-86445500D01*
X192876908Y-86445500D01*
X193113097Y-86445500D01*
X193346368Y-86408553D01*
X193379825Y-86397682D01*
X193570992Y-86335568D01*
X193781433Y-86228343D01*
X193972510Y-86089517D01*
X194139517Y-85922510D01*
X194278343Y-85731433D01*
X194385568Y-85520992D01*
X194458553Y-85296368D01*
X194458731Y-85295244D01*
X194495500Y-85063097D01*
X194495500Y-84826902D01*
X194458553Y-84593631D01*
X194385566Y-84369003D01*
X194304242Y-84209397D01*
X194278343Y-84158567D01*
X194139517Y-83967490D01*
X193972510Y-83800483D01*
X193937872Y-83775317D01*
X193895207Y-83719989D01*
X193889228Y-83650375D01*
X193921833Y-83588580D01*
X193937873Y-83574682D01*
X193972510Y-83549517D01*
X194100869Y-83421158D01*
X195699500Y-83421158D01*
X195699500Y-83429001D01*
X195699500Y-83578846D01*
X195730261Y-83733489D01*
X195730264Y-83733501D01*
X195790602Y-83879172D01*
X195790609Y-83879185D01*
X195878210Y-84010288D01*
X195878213Y-84010292D01*
X195989707Y-84121786D01*
X195989711Y-84121789D01*
X196120814Y-84209390D01*
X196120827Y-84209397D01*
X196266498Y-84269735D01*
X196266503Y-84269737D01*
X196421153Y-84300499D01*
X196421156Y-84300500D01*
X196421158Y-84300500D01*
X196578844Y-84300500D01*
X196578845Y-84300499D01*
X196733497Y-84269737D01*
X196879179Y-84209394D01*
X197010289Y-84121789D01*
X197121789Y-84010289D01*
X197129145Y-83999279D01*
X197146898Y-83972712D01*
X197200510Y-83927906D01*
X197269835Y-83919199D01*
X197332862Y-83949353D01*
X197353102Y-83972712D01*
X197378207Y-84010284D01*
X197378213Y-84010292D01*
X197489707Y-84121786D01*
X197489711Y-84121789D01*
X197620814Y-84209390D01*
X197620827Y-84209397D01*
X197766498Y-84269735D01*
X197766503Y-84269737D01*
X197921153Y-84300499D01*
X197921156Y-84300500D01*
X197921158Y-84300500D01*
X198078844Y-84300500D01*
X198078845Y-84300499D01*
X198233497Y-84269737D01*
X198379179Y-84209394D01*
X198510289Y-84121789D01*
X198621789Y-84010289D01*
X198709394Y-83879179D01*
X198769737Y-83733497D01*
X198800500Y-83578842D01*
X198800500Y-83421158D01*
X198800500Y-83421155D01*
X198800499Y-83421153D01*
X198769739Y-83266511D01*
X198769738Y-83266508D01*
X198769737Y-83266503D01*
X198759937Y-83242844D01*
X198750500Y-83195396D01*
X198750500Y-79862228D01*
X198770185Y-79795189D01*
X198786814Y-79774552D01*
X201063428Y-77497937D01*
X201082207Y-77482525D01*
X201199035Y-77404464D01*
X201324464Y-77279035D01*
X201423013Y-77131547D01*
X201490894Y-76967666D01*
X201525500Y-76793691D01*
X201525500Y-76116309D01*
X201525500Y-76116306D01*
X201525499Y-76116304D01*
X201490896Y-75942341D01*
X201490893Y-75942332D01*
X201470176Y-75892316D01*
X201451959Y-75848336D01*
X219299500Y-75848336D01*
X219299500Y-76151663D01*
X219333457Y-76453048D01*
X219333460Y-76453062D01*
X219400953Y-76748771D01*
X219400957Y-76748783D01*
X219501133Y-77035068D01*
X219632733Y-77308338D01*
X219632735Y-77308341D01*
X219794108Y-77565164D01*
X219983221Y-77802304D01*
X220197696Y-78016779D01*
X220434836Y-78205892D01*
X220691659Y-78367265D01*
X220964935Y-78498868D01*
X221179951Y-78574105D01*
X221251216Y-78599042D01*
X221251228Y-78599046D01*
X221546937Y-78666540D01*
X221546946Y-78666541D01*
X221546951Y-78666542D01*
X221747874Y-78689180D01*
X221848337Y-78700499D01*
X221848340Y-78700500D01*
X221848343Y-78700500D01*
X222151660Y-78700500D01*
X222151661Y-78700499D01*
X222305694Y-78683144D01*
X222453048Y-78666542D01*
X222453051Y-78666541D01*
X222453063Y-78666540D01*
X222748772Y-78599046D01*
X223035065Y-78498868D01*
X223308341Y-78367265D01*
X223565164Y-78205892D01*
X223802304Y-78016779D01*
X224016779Y-77802304D01*
X224205892Y-77565164D01*
X224367265Y-77308341D01*
X224498868Y-77035065D01*
X224599046Y-76748772D01*
X224666540Y-76453063D01*
X224700500Y-76151657D01*
X224700500Y-75848343D01*
X224669118Y-75569815D01*
X224666542Y-75546951D01*
X224666541Y-75546946D01*
X224666540Y-75546937D01*
X224599046Y-75251228D01*
X224498868Y-74964935D01*
X224367265Y-74691659D01*
X224205892Y-74434836D01*
X224016779Y-74197696D01*
X223802304Y-73983221D01*
X223565164Y-73794108D01*
X223308341Y-73632735D01*
X223308338Y-73632733D01*
X223035068Y-73501133D01*
X222748783Y-73400957D01*
X222748771Y-73400953D01*
X222520556Y-73348864D01*
X222453063Y-73333460D01*
X222453060Y-73333459D01*
X222453048Y-73333457D01*
X222151663Y-73299500D01*
X222151657Y-73299500D01*
X221848343Y-73299500D01*
X221848336Y-73299500D01*
X221546951Y-73333457D01*
X221546937Y-73333460D01*
X221251228Y-73400953D01*
X221251216Y-73400957D01*
X220964931Y-73501133D01*
X220691661Y-73632733D01*
X220434837Y-73794107D01*
X220197696Y-73983220D01*
X219983220Y-74197696D01*
X219794107Y-74434837D01*
X219632733Y-74691661D01*
X219501133Y-74964931D01*
X219400957Y-75251216D01*
X219400953Y-75251228D01*
X219333460Y-75546937D01*
X219333457Y-75546951D01*
X219299500Y-75848336D01*
X201451959Y-75848336D01*
X201423016Y-75778458D01*
X201423009Y-75778446D01*
X201324464Y-75630965D01*
X201324461Y-75630961D01*
X201199038Y-75505538D01*
X201199034Y-75505535D01*
X201051553Y-75406990D01*
X201051540Y-75406983D01*
X200887667Y-75339106D01*
X200887658Y-75339103D01*
X200713694Y-75304500D01*
X200713691Y-75304500D01*
X200536309Y-75304500D01*
X200536306Y-75304500D01*
X200362341Y-75339103D01*
X200362332Y-75339106D01*
X200198460Y-75406983D01*
X200198449Y-75406989D01*
X200141162Y-75445267D01*
X200074484Y-75466144D01*
X200008122Y-75448281D01*
X199864606Y-75361522D01*
X199792659Y-75339103D01*
X199702196Y-75310914D01*
X199702194Y-75310913D01*
X199702192Y-75310913D01*
X199652778Y-75306423D01*
X199631616Y-75304500D01*
X199118384Y-75304500D01*
X199099145Y-75306248D01*
X199047807Y-75310913D01*
X198885393Y-75361522D01*
X198739811Y-75449530D01*
X198619530Y-75569811D01*
X198531522Y-75715393D01*
X198480913Y-75877807D01*
X198474500Y-75948386D01*
X198474500Y-76242770D01*
X198454815Y-76309809D01*
X198438181Y-76330451D01*
X195917048Y-78851583D01*
X195895105Y-78884424D01*
X195873307Y-78917049D01*
X195854111Y-78945777D01*
X195834916Y-78974504D01*
X195834912Y-78974511D01*
X195778343Y-79111082D01*
X195778340Y-79111092D01*
X195749500Y-79256079D01*
X195749500Y-83195396D01*
X195748049Y-83202687D01*
X195746408Y-83222916D01*
X195744079Y-83233147D01*
X195730263Y-83266503D01*
X195699500Y-83421158D01*
X194100869Y-83421158D01*
X194139517Y-83382510D01*
X194278343Y-83191433D01*
X194385568Y-82980992D01*
X194458553Y-82756368D01*
X194495500Y-82523097D01*
X194495500Y-82286902D01*
X194458553Y-82053631D01*
X194385566Y-81829003D01*
X194278342Y-81618566D01*
X194139517Y-81427490D01*
X193972510Y-81260483D01*
X193781433Y-81121657D01*
X193570996Y-81014433D01*
X193346368Y-80941446D01*
X193113097Y-80904500D01*
X193113092Y-80904500D01*
X192876908Y-80904500D01*
X192876903Y-80904500D01*
X192643631Y-80941446D01*
X192419003Y-81014433D01*
X192208566Y-81121657D01*
X192099550Y-81200862D01*
X192017490Y-81260483D01*
X192017488Y-81260485D01*
X192017487Y-81260485D01*
X191850485Y-81427487D01*
X191850485Y-81427488D01*
X191850483Y-81427490D01*
X191790862Y-81509550D01*
X191711657Y-81618566D01*
X191604433Y-81829003D01*
X191531446Y-82053631D01*
X191494500Y-82286902D01*
X171495500Y-82286902D01*
X171458553Y-82053631D01*
X171385566Y-81829003D01*
X171278342Y-81618566D01*
X171139517Y-81427490D01*
X170972510Y-81260483D01*
X170781433Y-81121657D01*
X170570996Y-81014433D01*
X170346368Y-80941446D01*
X170113097Y-80904500D01*
X170113092Y-80904500D01*
X169876908Y-80904500D01*
X169876903Y-80904500D01*
X169643631Y-80941446D01*
X169419003Y-81014433D01*
X169208566Y-81121657D01*
X169099550Y-81200862D01*
X169017490Y-81260483D01*
X169017488Y-81260485D01*
X169017487Y-81260485D01*
X168850485Y-81427487D01*
X168850485Y-81427488D01*
X168850483Y-81427490D01*
X168790862Y-81509550D01*
X168711657Y-81618566D01*
X168604433Y-81829003D01*
X168531446Y-82053631D01*
X168494500Y-82286902D01*
X156500500Y-82286902D01*
X156500500Y-75848336D01*
X157149500Y-75848336D01*
X157149500Y-76151663D01*
X157183457Y-76453048D01*
X157183460Y-76453062D01*
X157250953Y-76748771D01*
X157250957Y-76748783D01*
X157351133Y-77035068D01*
X157482733Y-77308338D01*
X157482735Y-77308341D01*
X157644108Y-77565164D01*
X157833221Y-77802304D01*
X158047696Y-78016779D01*
X158284836Y-78205892D01*
X158541659Y-78367265D01*
X158814935Y-78498868D01*
X159029951Y-78574105D01*
X159101216Y-78599042D01*
X159101228Y-78599046D01*
X159396937Y-78666540D01*
X159396946Y-78666541D01*
X159396951Y-78666542D01*
X159597874Y-78689180D01*
X159698337Y-78700499D01*
X159698340Y-78700500D01*
X159698343Y-78700500D01*
X160001660Y-78700500D01*
X160001661Y-78700499D01*
X160155694Y-78683144D01*
X160303048Y-78666542D01*
X160303051Y-78666541D01*
X160303063Y-78666540D01*
X160598772Y-78599046D01*
X160885065Y-78498868D01*
X161158341Y-78367265D01*
X161415164Y-78205892D01*
X161652304Y-78016779D01*
X161866779Y-77802304D01*
X162055892Y-77565164D01*
X162217265Y-77308341D01*
X162348868Y-77035065D01*
X162449046Y-76748772D01*
X162516540Y-76453063D01*
X162550500Y-76151657D01*
X162550500Y-75848343D01*
X162519118Y-75569815D01*
X162516542Y-75546951D01*
X162516541Y-75546946D01*
X162516540Y-75546937D01*
X162449046Y-75251228D01*
X162348868Y-74964935D01*
X162217265Y-74691659D01*
X162055892Y-74434836D01*
X161866779Y-74197696D01*
X161652304Y-73983221D01*
X161415164Y-73794108D01*
X161158341Y-73632735D01*
X161158338Y-73632733D01*
X160885068Y-73501133D01*
X160598783Y-73400957D01*
X160598771Y-73400953D01*
X160370556Y-73348864D01*
X160303063Y-73333460D01*
X160303060Y-73333459D01*
X160303048Y-73333457D01*
X160001663Y-73299500D01*
X160001657Y-73299500D01*
X159698343Y-73299500D01*
X159698336Y-73299500D01*
X159396951Y-73333457D01*
X159396937Y-73333460D01*
X159101228Y-73400953D01*
X159101216Y-73400957D01*
X158814931Y-73501133D01*
X158541661Y-73632733D01*
X158284837Y-73794107D01*
X158047696Y-73983220D01*
X157833220Y-74197696D01*
X157644107Y-74434837D01*
X157482733Y-74691661D01*
X157351133Y-74964931D01*
X157250957Y-75251216D01*
X157250953Y-75251228D01*
X157183460Y-75546937D01*
X157183457Y-75546951D01*
X157149500Y-75848336D01*
X156500500Y-75848336D01*
X156500500Y-72624499D01*
X156520185Y-72557460D01*
X156572989Y-72511705D01*
X156624500Y-72500499D01*
X225375500Y-72500499D01*
X225442539Y-72520184D01*
G37*
G04 #@! TD.AperFunction*
M02*
